/* XPM */
static char *_645790511905[] = {
/* columns rows colors chars-per-pixel */
"32 32 9 1 ",
"  c #5068D0",
". c #6880D0",
"X c #987070",
"o c #B89088",
"O c #805858",
"+ c #E8D0C8",
"@ c #D8B0A0",
"# c #604050",
"$ c #808088",
/* pixels */
"       .               .        ",
"        .      XX       .       ",
"        .    XXoXX      .       ",
"         .  XoooooX      .      ",
"         . XOXo+o+oo     .      ",
"          .Oo+o+X@@@X     .     ",
"          O+++@oo@@oXXX    ..   ",
"         O+++@@@o@o@oXXX     .. ",
"        Xo@@@@o@@@XoOOO##      .",
".      #o@ooO@o@@@@O##OO##      ",
".     OO@oOOO@@@@@@OO##OOO      ",
" .   #O#oOOOo@@@@@@XO####O#     ",
" .  #O#OOOOoo@@@@@@XOO##O###    ",
"  . #O##OOoooo@@@@oXOO######    ",
"   ####OOoooooo@@oo#OOO#O####   ",
"   #####ooooooo@ooO##OO######   ",
"  $#XXOOOoooXOOXXOX##OOO#####$$$",
"  $XXOOXOooXOOOOXXXOO#OO#####O$$",
" $#XXO#XXOXOOOOOXXXOO##OO#####$$",
" $#XO#XooXOOOOOOOXXXOO#OO#####$$",
" $#O#OXoX#OOOOOOOOXXOO##OO####$$",
" $#O#XXXO##OOOOOOOOXO#O#OO##O#$$",
" $##OXXOOOO##OOOOOO##OOOOOOO##$$",
" $##OOO#OOOOOOOOO##OOOOO#OO#O#$$",
" $#OO###XXXOO#OO#O##OOOO###O##$$",
".$#O#O##XXXXOO###O##OOOX##O#O#$$",
".$O#O#O#XXXO####OOO#OOOO#O#O#O$$",
" $$O#O##OOOO####OOO##OOO##O#O$$ ",
" .$$####OOOO####OOO##OOO####$$$ ",
"  .$$O###OOO####OOOO##O###O$$$  ",
"   .$$$O$##O####OOOO#O$$O$$$$   ",
"     .$$$$$#########$$$$$$$     "
};
