/* XPM */
static char *boots1646665640[] = {
/* columns rows colors chars-per-pixel */
"32 32 10 1 ",
"  c None",
". c black",
"X c #684828",
"o c #A86020",
"O c #E09028",
"+ c #F8D020",
"@ c #708890",
"# c #A0B0C0",
"$ c #D0D8E8",
"% c #F8F8F8",
/* pixels */
"                                ",
"                                ",
"                                ",
"                                ",
"                                ",
"                                ",
"                                ",
"                                ",
"            .........           ",
"            .O+++++O.           ",
"            .O+++++.....        ",
"            .OOOOO.$%%$.        ",
"            ......$%$..         ",
"             .XX.#%%%%$.        ",
"             .oo.%%$...         ",
"             .oo.%%%$.          ",
"           ..Xoo.%@..           ",
"          .Xoooo....            ",
"          .oooooooX.            ",
"          .XooooooX.            ",
"           .........            ",
"                                ",
"                                ",
"                                ",
"                                ",
"                                ",
"                                ",
"                                ",
"                                ",
"                                ",
"                                ",
"                                "
};
