/* XPM */
static char *escape1646652289[] = {
/* columns rows colors chars-per-pixel */
"32 32 8 1 ",
"  c gray16",
". c #293129",
"X c #4A3929",
"o c #317331",
"O c #634A29",
"+ c #7B6339",
"@ c #8C7B4A",
"# c #4A9C4A",
/* pixels */
"#####oooooooooooooooooooooo#####",
"###ooooo                ooooo###",
"##ooo   + OO++++++++OO +   ooo##",
"#ooo O+++OX++OOOOOO++XO+++O ooo#",
"#oo O+++OO OOOOOOOOOO OO+++O oo#",
"oo O++OOOO OXXXXXXXXO OOOO++O oo",
"oo ++OOOOX X        X XOOOO++ oo",
"oo X+OOOX              XOOO+X oo",
"oo +XOOX................XOOX+ oo",
"oo ++XX ................ XX++ oo",
"#o ++O  ................  O++ o#",
"#o ++OX ................ XO++ o#",
"#o O+OX ................ XO+O o#",
"oo XOOX ................ XOOX oo",
"oo +XOX ................ XOX+ oo",
"oo ++XX ................ XX++ oo",
"oo ++O    XXXXXXXXXXXX    O++ oo",
"oo ++OX                  XO++ oo",
"oo OOOX  OOOOOOOOOOOOOO  XOOO oo",
"#o XXOX  XXOXXXOOXXXOXX  XOXX o#",
"#o +OXX                  XXO+ o#",
"#o ++O  OOOOOOOOOOOOOOOO  O++ o#",
"oo +++O OXXOOOOXXOOOOXXO O+++ oo",
"oo ++++OOXXXOOXXXXOOXXXOO++++ oo",
"#o O++++@@@@@@@@@@@@@@@@++++O o#",
"#o O++++++@@@@@@@@@@@@++++++O o#",
"#o OO++++++++++++++++++++++OO o#",
"#oo OO++++++++++++++++++++OO oo#",
"##oo OOOOO++++OOOO++++OOOOO oo##",
"###oo    OOOOO    OOOOO    oo###",
"####ooooo     oooo     ooooo####",
"#########ooooo####ooooo#########"
};
