/* XPM */
static char *wall21646652293[] = {
/* columns rows colors chars-per-pixel */
"32 32 3 1 ",
"  c gray16",
". c #297B39",
"X c #4A9C4A",
/* pixels */
"XXXXXXXXXXXXXXXXXXXXXXXXXXXXXXXX",
"XXXXXXXXXXXXXXXXXXXXXXXXXXXXXXXX",
"XXXXXXX       XXXX       XXXXXXX",
"XXXXXX XXXXXXX XX XXXXXXX XXXXXX",
"XXXXXX XXXXXX..  ..XXXXXX XXXXXX",
"XXXXXX XXXX....  ....XXXX XXXXXX",
"XXXXXX XXX.....  .....XXX XXXXXX",
"XX      XX.....  .....XX      XX",
"X XXXXXX  .....  .....  XXXXXX X",
"X XXXX.... ... .. ... ....XXXX X",
"X XXXX..... . .... . .....XXXX X",
"X XXX....... ..XX.. .......XXX X",
"X XX........ .XXXX. ........XX X",
"X XX........ .XXXX. ........XX X",
"XX ......... .XXXX. ......... XX",
"XXX ........ .XXXX. ........ XXX",
"XXX          .XXXX.          XXX",
"XX ......... ...... ......... XX",
"X ..........        .......... X",
" X.......... ...... ..........X ",
" XX........ ........ ........XX ",
" XXX...... .......... ......XXX ",
" XXXXX... ............ ...XXXXX ",
"          ............          ",
"XX ....... XX......XX ....... XX",
"XX  XX.... XXX....XXX ....XX  XX",
"XXXX XXX... XX....XX ...XXX XXXX",
"XXXX XXXX... X....X ...XXXX XXXX",
"XXXXX  XX... XX..XX ...XX  XXXXX",
"XXXXXXX       XXXX       XXXXXXX",
"XXXXXXXXXXXXX XXXX XXXXXXXXXXXXX",
"XXXXXXXXXXXXXX    XXXXXXXXXXXXXX"
};
