/* XPM */
static char *d6b20c5e0fdf48ba81ecdfe8c87c1ce9CZtBDaTKUvfyG8cI[] = {
/* columns rows colors chars-per-pixel */
"32 32 203 2 ",
"   c #3A2A04",
".  c #292528",
"X  c #511B00",
"o  c #492E0A",
"O  c #702F04",
"+  c #7B3A24",
"@  c #5A4618",
"#  c #664704",
"$  c #6B510C",
"%  c #725500",
"&  c #7A5A06",
"*  c #6C571C",
"=  c #775C19",
"-  c #7F6200",
";  c #75601F",
":  c #7C651D",
">  c #564C34",
",  c #6C5A20",
"<  c #705D2E",
"1  c #7B6728",
"2  c #7E6E39",
"3  c #5A594A",
"4  c #6B6256",
"5  c #776A53",
"6  c #797459",
"7  c #525664",
"8  c #676668",
"9  c #7B7567",
"0  c #646873",
"q  c #6B6874",
"w  c #74797E",
"e  c #823100",
"r  c #835E05",
"t  c #985312",
"y  c #896F03",
"u  c #967404",
"i  c #876B1B",
"p  c #8A7315",
"a  c #937819",
"s  c #855130",
"d  c #836E25",
"f  c #8D7625",
"g  c #897228",
"h  c #947926",
"j  c #9A7D24",
"k  c #947C2C",
"l  c #836E32",
"z  c #837139",
"x  c #927B34",
"c  c #907C38",
"v  c #8D714B",
"b  c #85794C",
"n  c #907F50",
"m  c #A37B58",
"M  c #877E6C",
"N  c #9F861E",
"B  c #A9871B",
"V  c #B79213",
"C  c #9E8730",
"Z  c #AB8A25",
"A  c #A58628",
"S  c #A48B2C",
"D  c #AD8C29",
"F  c #AC932A",
"G  c #B3932C",
"H  c #BB9A29",
"J  c #AA8F33",
"K  c #B59736",
"L  c #C39E23",
"P  c #CAA626",
"I  c #C6A52A",
"U  c #C4A92C",
"Y  c #D9BA2B",
"T  c #C6A637",
"R  c #C8AB33",
"E  c #CEB036",
"W  c #DCBB37",
"Q  c #D6BA38",
"!  c #E1BE32",
"~  c #DCC238",
"^  c #E4C435",
"/  c #ECCD35",
"(  c #E4C53A",
")  c #EBCE3A",
"_  c #F3D433",
"`  c #F5D83A",
"'  c #FADD3B",
"]  c #FEE43C",
"[  c #9B894F",
"{  c #B69942",
"}  c #BA8B56",
"|  c #B29A54",
" . c #8A8364",
".. c #968667",
"X. c #9E956E",
"o. c #8A8277",
"O. c #90877A",
"+. c #9D9373",
"@. c #A6986E",
"#. c #B19E6F",
"$. c #A29574",
"%. c #AB9C76",
"&. c #A7A178",
"*. c #C6AA49",
"=. c #D4BB4D",
"-. c #E9C642",
";. c #F2D242",
":. c #747984",
">. c #7A7E86",
",. c #7F8499",
"<. c #3A82D7",
"1. c #3785DB",
"2. c #3B86DA",
"3. c #3D8BDD",
"4. c #398FE2",
"5. c #3E91E2",
"6. c #3C9FEE",
"7. c #3EA3F1",
"8. c #4792DD",
"9. c #739BCE",
"0. c #7EA3C7",
"q. c #7DAFD5",
"w. c #7BAFD8",
"e. c #75B2DE",
"r. c #7CB4DD",
"t. c #4195E4",
"y. c #4299E6",
"u. c #4C9BE3",
"i. c #429EE9",
"p. c #549AE0",
"a. c #45A3ED",
"s. c #4AA2EA",
"d. c #48A8EF",
"f. c #5CADE9",
"g. c #5BB1EF",
"h. c #43A7F1",
"j. c #46AAF2",
"k. c #49ABF2",
"l. c #52AFF1",
"z. c #4DB0F4",
"x. c #54B4F3",
"c. c #5BB5F3",
"v. c #56B8F4",
"b. c #5CBAF5",
"n. c #61ADE8",
"m. c #65B3EC",
"M. c #68B3EB",
"N. c #73B4E2",
"B. c #76BAEA",
"V. c #63BCF4",
"C. c #6ABEF4",
"Z. c #79C3ED",
"A. c #67C5F7",
"S. c #69C3F6",
"D. c #6ECCF8",
"F. c #73C5F5",
"G. c #74CAF6",
"H. c #72CDF8",
"J. c #7ECEF8",
"K. c #7AD3F9",
"L. c #868689",
"P. c #83868C",
"I. c #9D9A8C",
"U. c #888B91",
"Y. c #8D9096",
"T. c #969598",
"R. c #A19B88",
"E. c #A8A693",
"W. c #959BA1",
"Q. c #9A9DA4",
"!. c #8EA0A6",
"~. c #9AA6AC",
"^. c #8BA5B9",
"/. c #96ABB7",
"(. c #A4A5A5",
"). c #AAABA9",
"_. c #B0AEAB",
"`. c #B9B7AC",
"'. c #B7B7B7",
"]. c #C5BBAA",
"[. c #87A7C4",
"{. c #85AECB",
"}. c #99B3C3",
"|. c #86B7D7",
" X c #91BEDC",
".X c #A2B8C4",
"XX c #AFD1D7",
"oX c #8CC9E9",
"OX c #87CAF2",
"+X c #83D3F9",
"@X c #8BD3F8",
"#X c #85DAFA",
"$X c #8DDBFA",
"%X c #99DAF6",
"&X c #93DCFA",
"*X c #98DEFA",
"=X c #88E2FE",
"-X c #94E3FC",
";X c #9DE1FB",
":X c #A0E4FB",
">X c #A4E9FD",
",X c #CFCFD0",
"<X c #CED1D9",
/* pixels */
"k.k.k.j.j.H.D.y.y.j.j.k.k.k.k.k.k.k.k.h.k.k.k.x.a.3.d.h.$Xv.4.a.",
"k.j.k.j.k.J.F.v.$XOXh.b.G.k.k.k.k.k.j.k.k.k.k.&Xl.<.d.h.*Xb.2.a.",
"j.k.j.h.D.D.z.s.s.S.&X+Xz.k.v.H.k.j.z.$X*Xk.K.c.K.<.d.K.x.z.2.i.",
"j.D.$XV.+XG.y.u.u.n.Z.n.1.t.z.C.*X#X$Xx.b.k.v.h.c.&Xu.;Xk.8.a.k.",
"-XS.b.H.n.i.0.I.+.M v R.a.a.k.k.b.x.p.1.1.#Xk.8.h.V.G.V.k.2.k.k.",
"V.y.3.OXV.e.+.1 g i $ z /.z.k.k.k.h.6.l.OXv.k.<.j.h.b.$Xk.i.h.k.",
"5.y.a.J.Z.E.| G Z Z B x b W.k.k.k.k.k.x.-X6.t.a.k.k.k.-Xz.D.&Xc.",
"y.k.k.c.r.X.J V H I E G , 9 g.k.k.k.k.@Xb.h.2.k.k.k.k.v.@Xn.C.u.",
"d.k.k.h.M.R.C u Z R ^ E l M l.k.k.k.k.-Xk.t.i.k.j.k.k.7.C.s.h.i.",
"k.k.d.A. X..= & Z W ` ~ c O.g.k.k.k.x.;Xk.<.k.k.k.k.k.H.h.y.k.k.",
"k.k.h.XX} t O r I ' ] W x o.m.k.k.k.k.F.F.1.j.k.k.k.k.>Xk.2.k.k.",
"k.m.}.m t e X $ U ] ] ~ S [ E.e.l.h.k.x.:X4.t.k.j.j.S.G.k.2.h.k.",
"k.^.s O e O X @ G ;.] ) T A h n T.r.w.r. X X9.V.k.k.*Xz.y.y.k.k.",
"j./.v + s + o # G ;.] ) U B u u [ &.&.%.$.$.$.~.N.l.*Xv.2.d.k.k.",
"h.S.oX}.I.5 + & U ;.] ~ S j L Y W =.=.*.{ { { | $.O.M !.8.i.l.l.",
"h.-XC.i.p./.4 : Y ' _ R j S ^ ] ' _ _ ! P P P G z < l n R.{.q.,X",
"7.A.v.3.i.n.,.b ~ _ U S S K ( ] ' ` _ / ( ^ ( T h g K K = < I.<X",
"v.d.i.5.d.d.,.6 R ~ F h f G E ;._ ) ) ~ E T T J j D Q L # > Q.l.",
"b.k.i.a.d.e.8 > S U F f ; d K W -.) W H N 1 , < k H E L l M N.C.",
"k.k.z.7.v.B.,.3 2 N N p $ $ a F H H Z a = @ @ , i a a x M ).k.&X",
"a.d.k.b.H.b.q.L.4 , y y % # # % & - & % # % p p & o   > M r.C.G.",
"5.d.d.$XV.7.5.[.0 > 1 h g : * * = : : : : f C N = . . 7 ^.k.>XV.",
"a.k.k.K.A.3.i.r.:.4  .@.$.$.+.$.@.#.#.#.&.X...6 4 4 q W.oXC.F.x.",
"a.d.d.+Xb.5.y.g.^.>.,.U.T.(._.`.].].].].].).Y.,.w P.(.M.k.&X4.y.",
"d.k.k.h.k.y.a.d.N.Y.0 7 0 P.(.'.`._._._._.).(.Y.w P.{.V.k.j.a.5.",
"k.k.k.x.k.k.k.k.k.r.Y.:.U.Q.'.'.(.T.Q.Q.Q.Q.(.(.^.{.m.-Xk.d.5.a.",
"k.k.k.K.b.a.d.k.k.k.l.c.l.l.m.|.W.P.U.U.L.Y.Y.0.n.k.k.%Xx.3.k.k.",
"k.k.d.#XA.8.6.k.k.k.h.h.k.k.k.m.|.^.[.[..X[.[.m.k.k.k.d.#X8.a.k.",
"k.k.k.j.K.f.y.k.k.k.k.k.k.k.h.k.h.k.k.k.k.#X8.d.j.k.k.a.%Xb.3.a.",
"k.k.k.7.+XF.8.5.k.k.k.k.k.k.k.k.k.k.k.h.k.;Xz.2.j.k.k.k.z.=X3.s.",
"k.j.k.k.z.H.g.8.d.k.k.k.k.k.k.k.k.k.k.k.k.c.#X1.h.k.k.k.z.:Xd.3.",
"k.k.k.k.k.h.K.B.6.j.k.h.k.k.k.k.k.k.k.k.d.x.;X7.3.k.d.d.z.=Xk.3."
};
