/* XPM */
static char *_593952aba694c06e14c47a7731c6ba0TyLiNTLMGr8gdFql[] = {
/* columns rows colors chars-per-pixel */
"32 32 204 2 ",
"   c #3A2A04",
".  c #292528",
"X  c #511B00",
"o  c #492E0A",
"O  c #702F04",
"+  c #7B3A24",
"@  c #5A4618",
"#  c #664704",
"$  c #6B510C",
"%  c #725500",
"&  c #7A5A06",
"*  c #704419",
"=  c #6C571C",
"-  c #775C19",
";  c #7F6200",
":  c #75601F",
">  c #7C651D",
",  c #564C34",
"<  c #6C5A20",
"1  c #705D2E",
"2  c #7B6728",
"3  c #7E6E39",
"4  c #5A594A",
"5  c #725D41",
"6  c #6B6256",
"7  c #776A53",
"8  c #797459",
"9  c #525664",
"0  c #676668",
"q  c #7B7567",
"w  c #646873",
"e  c #74797E",
"r  c #823200",
"t  c #835E05",
"y  c #985312",
"u  c #896F03",
"i  c #967404",
"p  c #876B1B",
"a  c #8A7315",
"s  c #937819",
"d  c #855130",
"f  c #836E25",
"g  c #8D7625",
"h  c #947926",
"j  c #9A7D24",
"k  c #947C2C",
"l  c #836E32",
"z  c #837139",
"x  c #927B34",
"c  c #907C38",
"v  c #8D714B",
"b  c #85794C",
"n  c #907F50",
"m  c #877E6C",
"M  c #9F861E",
"N  c #A9871B",
"B  c #B79213",
"V  c #9E8730",
"C  c #AB8A25",
"Z  c #A58628",
"A  c #A48B2C",
"S  c #AD8C29",
"D  c #AC932A",
"F  c #B3932C",
"G  c #BB9A29",
"H  c #AA8F33",
"J  c #B59736",
"K  c #C39E23",
"L  c #CAA626",
"P  c #C6A52A",
"I  c #C4A92C",
"U  c #D9BA2B",
"Y  c #C6A637",
"T  c #C8AB33",
"R  c #CEB036",
"E  c #DCBB37",
"W  c #D6BA38",
"Q  c #E1BE32",
"!  c #DCC238",
"~  c #E4C435",
"^  c #ECCD35",
"/  c #E4C53A",
"(  c #EBCE3A",
")  c #F3D433",
"_  c #F5D83A",
"`  c #FADD3B",
"'  c #FEE43C",
"]  c #9B894F",
"[  c #B69942",
"{  c #BA8B56",
"}  c #B29A54",
"|  c #8A8364",
" . c #968667",
".. c #9E956E",
"X. c #8A8277",
"o. c #90877A",
"O. c #9D9373",
"+. c #94907E",
"@. c #A6986E",
"#. c #B19E6F",
"$. c #A29574",
"%. c #AB9C76",
"&. c #C6AA49",
"*. c #D4BB4D",
"=. c #E0BC40",
"-. c #E9C642",
";. c #F2D242",
":. c #FFE540",
">. c #747984",
",. c #7A7E86",
"<. c #7F8499",
"1. c #3787DD",
"2. c #3B86DA",
"3. c #3D8BDD",
"4. c #3D8EE0",
"5. c #3E92E2",
"6. c #3EA5F1",
"7. c #4793DF",
"8. c #5C94D6",
"9. c #749ECE",
"0. c #68A2DA",
"q. c #79AED8",
"w. c #77B2DE",
"e. c #7AB1DB",
"r. c #4195E3",
"t. c #4299E6",
"y. c #4A9AE3",
"u. c #429DE9",
"i. c #529CE2",
"p. c #45A3ED",
"a. c #4AA3EB",
"s. c #4AA6EC",
"d. c #53A9EC",
"f. c #59A8E8",
"g. c #5BB1EF",
"h. c #43A7F1",
"j. c #46AAF2",
"k. c #48ABF2",
"l. c #51AEF1",
"z. c #4EB0F4",
"x. c #54B4F4",
"c. c #5BB5F3",
"v. c #56B9F6",
"b. c #5CBAF5",
"n. c #61ADE8",
"m. c #6CB4E7",
"M. c #63B3EC",
"N. c #73B6E4",
"B. c #74BAEB",
"V. c #62BBF4",
"C. c #69BEF4",
"Z. c #64C1F6",
"A. c #68C2F6",
"S. c #6DC7F8",
"D. c #6ECBF9",
"F. c #72C5F4",
"G. c #78C9F6",
"H. c #7DCCF6",
"J. c #72CDF8",
"K. c #78D1F8",
"L. c #7AD5FA",
"P. c #868689",
"I. c #83868C",
"U. c #9D9A8C",
"Y. c #888B91",
"T. c #8D9096",
"R. c #969699",
"E. c #A39C89",
"W. c #ACA993",
"Q. c #8B99AA",
"!. c #969AA1",
"~. c #9A9DA4",
"^. c #98A4A9",
"/. c #8AA4B7",
"(. c #95AABB",
"). c #A4A5A5",
"_. c #AAABA9",
"`. c #B0AEAB",
"'. c #B9B7AC",
"]. c #A6B3B3",
"[. c #B7B7B7",
"{. c #C5BBAA",
"}. c #86A8C6",
"|. c #8BAAC1",
" X c #84ABCA",
".X c #95AAC1",
"XX c #81B1D4",
"oX c #89BADA",
"OX c #9AC4D8",
"+X c #A3C0CF",
"@X c #82C1E8",
"#X c #83C7F1",
"$X c #83D3F9",
"%X c #85DAFA",
"&X c #8CDBFA",
"*X c #97D7F6",
"=X c #93DBFA",
"-X c #98DDFA",
";X c #A4D3E7",
":X c #88E2FE",
">X c #99E1FB",
",X c #A1E4FB",
"<X c #CFCFD0",
"1X c #CED1D9",
/* pixels */
"k.k.k.k.j.J.S.u.t.j.k.k.k.k.k.k.k.k.k.j.k.k.k.c.h.3.j.h.%Xb.4.p.",
"k.j.k.j.k.H.F.v.&XH.h.b.J.k.k.k.k.k.k.k.k.j.k.-Xk.2.s.h.-Xb.2.p.",
"j.k.k.h.S.S.x.u.d.C.&X$Xk.k.x.J.j.j.k.&X-Xj.K.c.H.7.p.K.b.k.2.u.",
"j.D.&XV.$XJ.t.r.r.t.b.d.3.r.k.A.-X%X=Xv.b.l.B.g.C.*X7.,Xk.4.p.k.",
"=XA.b.L.M.a.r.r.k.h.j.h.u.a.j.k.b.c.i.1.1.E.v  .O.+.OXV.k.2.k.k.",
"Z.t.3.#XM.h.h.p.k.k.k.k.k.k.k.k.h.h.5.d.].b $ p l z ..;Xk.u.k.k.",
"5.t.p.H.C.k.k.k.k.k.k.k.k.k.k.k.k.k.k.^.b k N Z F F } W.B.D.=Xc.",
"t.j.k.v.z.u.u.k.k.k.k.k.k.k.k.j.k.k.M.q = D U P G B H O.OXn.C.y.",
"j.k.k.h.j.r.r.k.k.k.k.k.k.k.k.k.j.j.c.m l T ~ Y N i V U.G.s.h.p.",
"k.k.k.Z.v.5.t.k.k.k.k.j.k.k.k.k.j.j.V.o.c ! ` ! C & d o. X7.j.j.",
"k.j.j.&XA.4.u.k.k.k.k.k.k.k.k.k.k.k.M.m c W ' _ L t O y { }.j.j.",
"k.h.Z.F.S.i.t.k.k.j.k.k.k.k.k.k.l.N.W.] H ! ' :.L & X r y n (.m.",
"k.h.$Xb.$XF.r.t.k.c.e.e.q.q.XXe.R.] h Z T ( ` ;.D @ X O r O d }.",
"k.6.$XZ.M.F.M.f.m.].%.$.$.%.%.%.] i i N T ^ ` ;.F O o * d r v .X",
"j.F.G.v.y.^.m P.$.} [ [ [ &.*.*.W U K s A ~ ' ` I & + 6 R..XB.d.",
"h.<XoX}.E.n 2 1 l F L K L Q ^ ) ' :./ S k I ( ' U f 7 /.f.a.j.j.",
"j.1XR.5 - J J g h Y / Q ~ ^ _ _ ` ` / J V A I ) ! ] P.8.6.k.k.k.",
"x.k.R.@ # P E C j H Y Y R E ( _ _ ( W D g g D ! T 7 <.y.k.k.z.6.",
"b.k.q.m l K R G k 2 1 2 V G E / -.=.J f : s D I V , w N.k.k.k.Z.",
"j.k.l._.m c a M p = @ @ & s N G G S p $ $ a M V 3 4 <.n.k.k.k.&X",
"p.s.l.oXP.,   o % p a % # % ; ; & % % # % u u < 6 X.OXs.j.6.A.K.",
"r.p.k.&X(.9 .   = x V f > 2 > > : - = > f s 2 , w +XF.A.b.6.,Xb.",
"u.k.k.$X@XT.0 6 5 8  .O.%.#.#.#.@.....$.O.@.| 6 ,.w.7.%XL.A.F.x.",
"p.k.k.H.b.0.^.<.e <.R._.'.{.{.{.{.{.`.).R.Y.<.,.Q.g.k.6.k.&X5.t.",
"k.j.k.h.j.y.}.I.>.T.)._.`.`.`.`.`.'.).P.w 9 w T.0.k.k.x.k.j.p.5.",
"k.k.j.x.z.k.M.XX/.).).~.~.~.!.!._.[.[.^.I.>.T.9.k.k.z.:Xk.s.3.s.",
"k.j.k.$Xb.p.k.k.M. XT.T.Y.T.Y.I.!.XXg.V.>Xd.s.3.j.k.z.>Xx.3.j.k.",
"k.k.k.$XA.7.u.k.k.M. X}./.|.|./.XXM.k.c.>Xh.2.k.k.k.j.j.%X7.s.j.",
"k.k.j.j.K.f.t.k.k.j.k.k.j.k.k.j.k.k.k.k.k.&X7.j.k.k.j.h.=Xb.3.s.",
"k.k.k.h.$XJ.r.r.k.k.k.k.k.k.k.k.k.k.k.j.k.>Xl.2.j.k.k.j.z.:X2.p.",
"j.k.k.j.k.J.f.y.j.k.k.k.k.k.k.k.k.k.k.j.k.b.L.2.s.k.k.k.l.,Xs.4.",
"k.k.k.k.k.j.$XB.r.k.k.j.k.k.k.k.j.k.k.k.k.c.>X6.3.k.k.j.k.:Xk.3."
};
