/* XPM */
static char *bc286f699cda4ad49b80d06f2c711b48U1wfY0TcirGFLujD[] = {
/* columns rows colors chars-per-pixel */
"32 32 189 2 ",
"   c #3F3C31",
".  c #45350B",
"X  c #493A10",
"o  c #684B03",
"O  c #6C5307",
"+  c #755806",
"@  c #675318",
"#  c #755C1F",
"$  c #7B621D",
"%  c #4B4738",
"&  c #544C3C",
"*  c #5F5232",
"=  c #644E21",
"-  c #685727",
";  c #725D31",
":  c #7B6626",
">  c #726535",
",  c #595953",
"<  c #675C4F",
"1  c #7F7145",
"2  c #7C7559",
"3  c #595D69",
"4  c #666768",
"5  c #676D79",
"6  c #787878",
"7  c #816100",
"8  c #8A6B00",
"9  c #906E00",
"0  c #8E7200",
"q  c #9A7A00",
"w  c #8A6B14",
"e  c #83681C",
"r  c #8A7119",
"t  c #90711C",
"y  c #987B18",
"u  c #896D24",
"i  c #8E7324",
"p  c #947A26",
"a  c #957D2C",
"s  c #89733B",
"d  c #A07F26",
"f  c #857546",
"g  c #947E47",
"h  c #807D7C",
"j  c #9F8600",
"k  c #9D8317",
"l  c #A68607",
"z  c #A78A00",
"x  c #A48A17",
"c  c #A79212",
"v  c #9E832B",
"b  c #9D8835",
"n  c #A58929",
"m  c #AE9524",
"M  c #AE942D",
"N  c #BA9521",
"B  c #B4962C",
"V  c #B69B2A",
"C  c #A78F32",
"Z  c #A49136",
"A  c #B79732",
"S  c #BAA428",
"D  c #C7A71E",
"F  c #C5A629",
"G  c #D4AE29",
"H  c #D4B324",
"J  c #D6B92D",
"K  c #DBBE28",
"L  c #C6AB32",
"P  c #CBB032",
"I  c #D8B837",
"U  c #DBBE34",
"Y  c #DDC229",
"T  c #DEC135",
"R  c #E3C636",
"E  c #EACA35",
"W  c #ECCD3A",
"Q  c #EED139",
"!  c #F2D63A",
"~  c #F7D93B",
"^  c #9A8B4E",
"/  c #9D8E52",
"(  c #AE9556",
")  c #9B8F64",
"_  c #928D72",
"`  c #A5986B",
"'  c #C2A65B",
"]  c #C5A960",
"[  c #E1C040",
"{  c #FDDD46",
"}  c #FFE342",
"|  c #777D88",
" . c #7D828B",
".. c #3A82D7",
"X. c #3B86D9",
"o. c #3D8BDD",
"O. c #3D8EE0",
"+. c #3E92E2",
"@. c #3C9FEE",
"#. c #3EA4F1",
"$. c #468DDC",
"%. c #4892DD",
"&. c #6597D4",
"*. c #7CADD8",
"=. c #7EB4DE",
"-. c #4195E4",
";. c #4299E6",
":. c #4A9AE3",
">. c #439DE9",
",. c #45A3ED",
"<. c #4AA2EA",
"1. c #4AA6EC",
"2. c #58AAE9",
"3. c #5FB3EF",
"4. c #43A7F1",
"5. c #46AAF2",
"6. c #48ABF2",
"7. c #52AFF1",
"8. c #4EB1F4",
"9. c #54B4F3",
"0. c #5AB5F3",
"q. c #55B8F5",
"w. c #5CBAF5",
"e. c #61ADE8",
"r. c #63B3EC",
"t. c #6BB4E9",
"y. c #75B7E7",
"u. c #74BBEB",
"i. c #69B7F0",
"p. c #63BCF4",
"a. c #69BEF5",
"s. c #64C2F6",
"d. c #6AC4F7",
"f. c #6DC7F8",
"g. c #6ECBF8",
"h. c #72C5F5",
"j. c #74CAF6",
"k. c #7DCCF6",
"l. c #72CCF8",
"z. c #7ECEF8",
"x. c #7BD1F7",
"c. c #79D4FA",
"v. c #7AD5FA",
"b. c #858689",
"n. c #8F919A",
"m. c #959391",
"M. c #97989A",
"N. c #A19C8B",
"B. c #ACA890",
"V. c #A8A69A",
"C. c #B8B497",
"Z. c #9C9FA4",
"A. c #9DA1A9",
"S. c #9BA5B5",
"D. c #9CB1B9",
"F. c #A6A7A4",
"G. c #BBB7A5",
"H. c #A7ACB7",
"J. c #A7B9B9",
"K. c #B1B5BF",
"L. c #C2BEB3",
"P. c #B7C3B1",
"I. c #C8C2B1",
"U. c #88A7C5",
"Y. c #91AEC3",
"T. c #98BDCC",
"R. c #8BB3D3",
"E. c #86B6D8",
"W. c #92BAD0",
"Q. c #AABCCB",
"!. c #99C8DA",
"~. c #A8CFDF",
"^. c #B7CDD7",
"/. c #85C6EB",
"(. c #9FDCEF",
"). c #8BD2F7",
"_. c #83D3F9",
"`. c #8DD5F9",
"'. c #85DAFA",
"]. c #8CDAFA",
"[. c #95D5F6",
"{. c #93DCFA",
"}. c #98DDFA",
"|. c #88E2FE",
" X c #95E3FC",
".X c #9FE1FB",
"XX c #A2E6FC",
"oX c #C8C9CF",
"OX c #D2CEC1",
/* pixels */
"6.6.6.6.5.l.f.>.;.5.6.5.5.6.6.5.6.6.6.5.5.6.6.q.,.X.5.,.'.q.o.,.",
"6.5.6.5.6.z.h.q.].z.1.w.l.6.6.6.6.5.5.8.8.5.6.}.7...5.,. Xw.X.,.",
"5.6.6.4.f.f.8.<.2.s.{.x.8.3./.!.!.y.q.].}.6.c.w.x.X.5.x.w.6.X.<.",
"5.g.].p._.j.;.+.+.;.w.7.U._ 1 ; ; f N.u.w.5.9.5.w.[.:.XX6.O.,.5.",
"{.d.w.c.r.<.-.+.5.1.4.t._ @ O o o O > N.$.c.6.o.5.w.z.p.6.X.6.6.",
"s.-.O./.i.@.4.1.5.8.5.W.f + x F V k @ f ~.q.5...5.4.w.`.6.>.6.6.",
"+.@.,.z.s.5.6.6.5.6.5.D.u 7 H { { F + : ^.#.+.,.6.6.6. X6.l.{.0.",
"-.1.6.0.8.>.,.6.6.6.5.!.Z j Y } } H 0 a !.5.X.8.6.5.6.q.).e.a.:.",
"5.6.6.4.5.-.-.6.6.5.6.J.Z c Y } } H q b !.%.@.6.6.6.6.#.a.<.4.,.",
"6.6.6.s.q.+.;.6.6.6.i.N.s y K ~ } H 8 : B.$.6.6.5.6.6.g.5.-.5.6.",
"6.5.5.].d.o.;.6.6.r.C.) a A U ~ ! J l i ) U.7.5.6.6.6.XX6.X.6.5.",
"6.4.s.h.j.<.;.6.t.F.( B P U E W Q E U F n ` U.3.6.5.f.j.6.X.6.6.",
"6.4._.p._.h.-.2.B.^ A H E ~ ! W Q Q } E D M ) D.6.5. X6.;.-.6.6.",
"6.#.x.d.r.h.6.J./ x L W Q ~ ! ! ! ! ! Q Q D y ^ W.5.{.q.X.1.5.6.",
"5.h.f.q.O.u.k.C.m z F U Q ! R U T T Q Q ] D q k G.8.s.8.X.,.6.6.",
"4. Xp.@.-.i.p.G.S z y V E ! L M M P Q Q A y z S P.6.1.>.;.5.6.6.",
"4.s.9.$.,.4.u.B.m q w a L P B d v M P S a w q V P.7.4...6.6.6.6.",
"q.4.,.-.,.1.D.2 w 9 t i u i n B A b u u u t 7 p C.7.6.-.6.6.6.4.",
"q.6.-.4.6.4.n., - + t i # e N I I B $ @ r e o - m.2.1.6.5.6.6.a.",
"5.6.6.6.0.q.Z.4 & = u d a B T ~ ! J n i v e .   b.&.,.6.6.6.6.{.",
",.5.5.0.l.w.y.n.6 < ; e i B U ~ ! J m w $ - % 3 b.R.w.5.4.5.a.l.",
"%.,.6.].p.,.:.*.H.h & X o t N G G N w o . & 6 Z.A.~.k.a.w.#.XXw.",
">.6.6.'.p.+.;.7.oXM.,   * g ( ] ' ( ^ < % 4 A.oX*.t.-.).c.a.j.9.",
",.6.5.k.p.O.;.t.oXM.6 5 h M.L.OXI.G.G.V.M.A.Z.E.%.5.6.4.6.{.o.@.",
"6.6.6.4.5.;.>.9.t.R.F.Z.H.Q.^.Q.S.S.H.Q.y.(.E.*.%.5.5.q.6.5.,.+.",
"6.5.5.9.7.5.6.6.6.6.E.R.t.E.Z.| 5 3 3  .E.].r.X.5.5.6. X6.5.o.,.",
"6.5.6._.w.1.5.5.6.6.6.7.5.7.Y.b.| | 5 n.(.4.,.o.5.6.7.}.q.o.6.6.",
"6.6.6._.d.-.;.6.6.6.6.6.6.6.6.7.e.e.t.p.}.1.o.6.6.5.5.5.'.%.,.6.",
"6.5.6.5.c.2.;.6.6.6.6.6.6.6.6.6.1.5.6.6.7.'.o.6.6.6.6.4.[.p.X.,.",
"6.6.6.4._.h.-.-.5.6.6.5.6.6.5.6.6.6.6.5.6.}.7.X.5.6.6.6.9.|.X.,.",
"6.6.6.6.6.l.2.:.5.6.5.6.5.6.6.6.6.6.6.6.6.w.c.X.,.6.6.6.8..X5.$.",
"5.6.6.6.6.5.z.y.;.6.6.6.6.6.5.6.6.5.6.6.6.q.XX@.o.6.6.6.6.|.6.o."
};
