/* XPM */
static char *ecdbf493ad154335df9af07b1dd65e24J422AQidv815JgjM[] = {
/* columns rows colors chars-per-pixel */
"32 32 191 2 ",
"   c #18090D",
".  c #030413",
"X  c #0D0814",
"o  c #161119",
"O  c #2A0E09",
"+  c #2D1009",
"@  c #39180F",
"#  c #2D1613",
"$  c #321610",
"%  c #361A12",
"&  c #381D15",
"*  c #361E18",
"=  c #37231C",
"-  c #181A26",
";  c #131B2B",
":  c #1D212E",
">  c #26252E",
",  c #322222",
"<  c #202430",
"1  c #292C37",
"2  c #2E313B",
"3  c #3C3434",
"4  c #32343C",
"5  c #3B373B",
"6  c #461907",
"7  c #431A09",
"8  c #431E11",
"9  c #4D210F",
"0  c #472416",
"q  c #562A16",
"w  c #652A0B",
"e  c #682B0C",
"r  c #632E14",
"t  c #6A361B",
"y  c #743C1D",
"u  c #4E3727",
"i  c #373A41",
"p  c #3A3C43",
"a  c #403F43",
"s  c #3B444F",
"d  c #3D607E",
"f  c #44464B",
"g  c #4B4B4F",
"h  c #434951",
"j  c #555657",
"k  c #5E5E5E",
"l  c #60605E",
"z  c #405B73",
"x  c #823D16",
"c  c #88431A",
"v  c #964919",
"b  c #B25419",
"n  c #91592E",
"m  c #B65F24",
"M  c #BE662B",
"N  c #BB6E31",
"B  c #C15F1E",
"V  c #CA631F",
"C  c #ED6B17",
"Z  c #F66E15",
"A  c #ED721F",
"S  c #F77519",
"D  c #F3741F",
"F  c #F8761D",
"G  c #FB791F",
"H  c #C86523",
"J  c #D36A23",
"K  c #DB6D23",
"L  c #DE7126",
"P  c #DB752F",
"I  c #C67538",
"U  c #E46F21",
"Y  c #E37225",
"T  c #EC7423",
"R  c #E47629",
"E  c #E57A2C",
"W  c #EC7C2B",
"Q  c #F37621",
"!  c #F67922",
"~  c #F57C27",
"^  c #F97A22",
"/  c #E47C31",
"(  c #835B44",
")  c #936B40",
"_  c #C67948",
"`  c #EE802E",
"'  c #F9832C",
"]  c #FA842C",
"[  c #EC8333",
"{  c #E68639",
"}  c #F98730",
"|  c #F78C37",
" . c #FA8B34",
".. c #F38D3A",
"X. c #FA9039",
"o. c #FB933C",
"O. c #BC864C",
"+. c #D98446",
"@. c #D28D5A",
"#. c #E78645",
"$. c #F68E44",
"%. c #F99641",
"&. c #F69847",
"*. c #FD9A42",
"=. c #FB9E49",
"-. c #F3995B",
";. c #F89A59",
":. c #FBA44A",
">. c #FCA34C",
",. c #F4A050",
"<. c #FCA752",
"1. c #FCAA55",
"2. c #FCAD59",
"3. c #F8A85C",
"4. c #FDB35C",
"5. c #E39E6E",
"6. c #DDA66B",
"7. c #E2A162",
"8. c #FDAC64",
"9. c #FDB561",
"0. c #FEBC65",
"q. c #FCB67B",
"w. c #FDC16F",
"e. c #FEC975",
"r. c #FFD27E",
"t. c #3F6686",
"y. c #456D8B",
"u. c #467396",
"i. c #417FC4",
"p. c #3E83CA",
"a. c #3B81D3",
"s. c #3B86DA",
"d. c #3D8BDD",
"f. c #3D8EE0",
"g. c #3E92E2",
"h. c #3FA1E9",
"j. c #4B91C5",
"k. c #428BD2",
"l. c #4293DB",
"z. c #4B97DA",
"x. c #4B9EDA",
"c. c #619EC6",
"v. c #5DA1D4",
"b. c #68B0D6",
"n. c #4597E2",
"m. c #4399E5",
"M. c #429CE9",
"N. c #49A3E3",
"B. c #44A3EC",
"V. c #49A5EA",
"C. c #48A7EC",
"Z. c #55A8E6",
"A. c #5BB5ED",
"S. c #42A7F1",
"D. c #46AAF2",
"F. c #48ABF2",
"G. c #4EB0F4",
"H. c #54B4F4",
"J. c #59B7F4",
"K. c #5CBAF5",
"L. c #61AFE9",
"P. c #67B8E9",
"I. c #74BCEB",
"U. c #63BBF3",
"Y. c #7BC5E8",
"T. c #66C3F7",
"R. c #68C2F6",
"E. c #6ECAF8",
"W. c #79CAF6",
"Q. c #73CCF8",
"!. c #7AD3F9",
"~. c #FFCE80",
"^. c #FED689",
"/. c #FFD796",
"(. c #FFE0AD",
"). c #86C0DF",
"_. c #84CAF0",
"`. c #88D5F6",
"'. c #85DAFA",
"]. c #8DDAFA",
"[. c #94D8F6",
"{. c #94DCFA",
"}. c #88E2FE",
"|. c #9AE2FB",
" X c #A1E4FB",
".X c #FDDBC2",
"XX c #FEEBDC",
"oX c #FFF4EB",
"OX c #FFF8ED",
"+X c #FFFAF0",
"@X c #FFFFF9",
/* pixels */
"F.F.F.F.D.Q.R.M.m.F.F.F.F.N.N.y.t.t.t.t.y.d j.v.N.d.D.B.'.K.d.B.",
"F.D.F.F.F.!.W.J.].W.D.A.b.y.5 $ % * @ @ & & 3 f j.a.D.S.|.K.s.B.",
"D.F.F.D.Q.R.F.V.Z.T.[.Y.3   q ^ ] *.] ^ X.:.n   , p.N.!.J.G.s.B.",
"D.E.].K.`.Q.g.n.g.n.A.> e ~ ^ G ^ %.4./ D  .2.:.b - z.|.F.f.B.D.",
"{.R.K.Q.L.V.m.g.D.x.; x ^ ] X.^ X.R &.E ,.:.o.1.2.N o U.F.s.F.F.",
"U.M.f._.U.h.B.S.N.; c Q T ^ ^ ^ J u @.7.6.+.D } 1.4.N o C.B.D.D.",
"g.M.M.`.U.F.F.x.; x Q ^ ^ ^ Q R ..m u ( I [ >.1.|  .4.O.- P.[.H.",
"M.D.F.K.G.M.n.> v U T Y Y T Q Q ] o.I M [ [ [ }  .1.1.0.b , c.z.",
"D.F.F.S.D.l.n.. V W T T Q Q Q T F / } U >...Z ] X. .' o.>.  f k ",
"F.D.D.T.H.k.4 t H Y T Q ^ Q T L T T T [ %.] D W  .} ' G <.) 3 g ",
"F.D.D.].b.p.. J Y L K T Q T L L T T T  .Q T W W ^  . .]  .4.= i ",
"D.D.P.P.s i q J T Y L T Y L L Y ! L U T E R `  .]  .' | G o.* i ",
"F.B.Y.5 + 8 Y R Q Y L Y R K Y Y ! Y ^ T ..' F ' =.<.X.] ^ o.& p ",
"F.h.5 q $.[ R L L L L T T Y Q Y Q G ! F Y T  .} F ! } 2.%.] @ s ",
"N.1 6 -.+Xe.%.R L L L L R L L K Y G ! G Y U T F ' >.1.G G 4.= 5 ",
"k 1 9 *.~.^ ^ o.E L Y L U L L R ! ! ! F ^ Q  .}  .1.' o.^ o.= p ",
"1 q 5..X' F ^ %.%.E L T T Y Q Y F ! ^ U T  . .F ^ ^ ! ^ ! ~ $ p ",
": e q.XXZ F ! o.%.R K U R L Y Y ! T Y U Y Q  . .' X.^ o.! 9 a j ",
"< w q.XXZ S ^ o.0.3.=.{ K L L L Y L L R L Q ^ ^ F ^ ^ ] !   u.L.",
": e 3./.S S F ' e.^.r.&.C T T L T T Y K L Y Q ] X.} ^ Q r 3 x.[.",
"< r *.0.Z F G F 1.~./.0.*.| Y U T Q Y Y Q Y Y W  .] A t 1 B.P.Q.",
": e 8.(.o.F ^ F | 9.w.2.=...U T L L L ! D Y L T G U y < A.h. XK.",
"i q @..Xe.S ^ F  .|  .' ' ' ^ | E L L T Y R Y ^ A y : ).!.R.Q.H.",
"k 1 7 $./.' F G F F S } 1.=.' 4.&.E Y R Y ^ J B c ; x.S.F.].f.M.",
"x.i 9 @.oX^.] S F F F } %. .~ >.q.%.Y H H H t . > x.D.H.F.F.B.g.",
"F.l.5 @ #.OX^. .^ ^ ^ F S ' o.9.OXE J * X X p i.F.F.G.|.F.S.f.B.",
"F.N.B.s % #.+X+X/.r.%.S ! F  ./.OXP # f ].f.M.l.F.F.G.[.H.d.F.F.",
"F.F.F._.a $ #.#.XX@XOXoXoXoX.X` _ # u.A.[.B.d.F.F.F.F.D.'.z.B.F.",
"F.F.F.D.Y.h $ + _ ;.;.-.;.;._ O @ y.C.G.F.].l.F.F.F.F.h.{.K.s.B.",
"F.F.D.S.`.I.p p 0 7 6 7 6 6 = p z V.F.F.F.|.F.d.F.F.F.F.H.}.d.B.",
"F.D.F.F.F.Q.v.k i 2 2 2 4 2 p l N.F.F.F.F.K.!.s.S.F.D.F.G. XC.d.",
"F.F.F.F.F.F.!.I.M.F.F.F.F.F.F.F.F.F.F.F.F.J.|.h.f.F.F.F.G.].F.d."
};
