/* XPM */
static char *def0e1c121c6459edc94065eaefb432fuITRT5sDhvqzLMZv[] = {
/* columns rows colors chars-per-pixel */
"32 32 112 2 ",
"   c #0B0E7A",
".  c #0D137D",
"X  c #2B2B74",
"o  c #42416F",
"O  c #555369",
"+  c #666363",
"@  c #B5AF38",
"#  c #C1BA2F",
"$  c #D6CF1A",
"%  c #E0D80C",
"&  c #EAE200",
"*  c #CBC525",
"=  c #918C4F",
"-  c #9E9948",
";  c #838056",
":  c #AAA440",
">  c #0F1882",
",  c #121D85",
"<  c #192286",
"1  c #15288E",
"2  c #162C91",
"3  c #1A3296",
"4  c #1C3A9C",
"5  c #2146A5",
"6  c #244EAB",
"7  c #334DA1",
"8  c #2552AE",
"9  c #3458A9",
"0  c #295BB5",
"q  c #2B63BC",
"w  c #386DBE",
"e  c #316CC2",
"r  c #3273C7",
"t  c #3373C8",
"y  c #357ED6",
"u  c #3983D4",
"i  c #3B86D9",
"p  c #3D8BDD",
"a  c #3D8EE0",
"s  c #3E92E2",
"d  c #3F9FEA",
"f  c #3EA4F1",
"g  c #4387D1",
"h  c #4D90D3",
"j  c #4B96DC",
"k  c #4195E3",
"l  c #4299E6",
"z  c #4A9AE3",
"x  c #429DE9",
"c  c #4FA1E5",
"v  c #45A3ED",
"b  c #4AA2EA",
"n  c #47A8EF",
"m  c #49A8EF",
"M  c #56AAE6",
"N  c #52A5E9",
"B  c #52A9EA",
"V  c #5EADE9",
"C  c #43A7F1",
"Z  c #46AAF2",
"A  c #48ABF2",
"S  c #4EB1F4",
"D  c #54B4F4",
"F  c #5BB6F4",
"G  c #55B8F5",
"H  c #5CBBF5",
"J  c #63A7E5",
"K  c #60ABE6",
"L  c #61AFE9",
"P  c #65B2ED",
"I  c #76BBEB",
"U  c #69B7F0",
"Y  c #63BCF5",
"T  c #69BEF5",
"R  c #65C2F6",
"E  c #6AC3F6",
"W  c #6EC8F7",
"Q  c #6BC6F8",
"!  c #6ECBF8",
"~  c #72C5F5",
"^  c #74CAF6",
"/  c #7DCCF6",
"(  c #72CCF8",
")  c #7ECEF8",
"_  c #7BD1F7",
"`  c #77D1F8",
"'  c #74D0FA",
"]  c #7AD5FA",
"[  c #7CD6FA",
"{  c #85CBF2",
"}  c #89D1F7",
"|  c #8DD2F7",
" . c #84D2F9",
".. c #83D5FA",
"X. c #8DD5F9",
"o. c #84DAFA",
"O. c #87DDFB",
"+. c #8BD9FA",
"@. c #8FDAFA",
"#. c #95D5F6",
"$. c #92D9FA",
"%. c #96DBFA",
"&. c #93DDFA",
"*. c #93DFFB",
"=. c #98DFFB",
"-. c #88E2FE",
";. c #92E4FC",
":. c #96E5FD",
">. c #A0E1F9",
",. c #A0E3FC",
"<. c #A3E9FC",
"1. c #A4E9FD",
/* pixels */
"A A A A Z ( Q x l A A A A A n A A n Z Z Z A A D v p m C O.F a x ",
"A Z Z A A ) ~ F X./ C H ( p u e q 6 4 4 6 r m %.S u C C =.H i v ",
"Z A A Z W W S b N h 7 >                       w / i m [ F A i v ",
"Z ! @.H  .^ d s q                               g #.z >.A a v A ",
"&.E H ' L b k i >         O + ; = @ # # : +     1 H ^ Y A i A A ",
"Y l p { P f n 0     O % & & & & & % & & & % X     x H X.A v m A ",
"s x b _ R A A 1     # & & & & & & & & & & & +     u A :.S ! $.F ",
"k Z A G S l k     X & & & & & & & & & & & & o     k A G } K T z ",
"n A A C Z s t     + & & & & & & & & & & & -     , A A f T b n d ",
"A A A R D s 0     = & & & & & & & % @ @ ;       t Z A ! n l A A ",
"A A Z +.T s 0     = & & & & & & & =           2 u A A <.A i Z A ",
"A C R ~ ^ c 4     @ & & & & & & & =             . s Q ^ A i Z A ",
"A C ..H ..T 3     # & & & & & & & - + : # = X     8 &.S l k A A ",
"A f ..R P ~ 3     # & & & & & & & & & & & & *     , ;.D p n A A ",
"Z ~ Q G p I       & & & & & & & & & & & & & & o     M D i v A Z ",
"C ;.Y x l U       & & & & & & & & & & & & & &       C l k n A A ",
"C R D p x Z       & & & & & & & & & & & & & :     3 m u A A A A ",
"D Z x k n C       & & & & & & & & & & & & # X     t A k Z A A C ",
"H A d v C C       & & & & & & & & & - = +       1 x A A A A A Y ",
"A A A A G D       & & & & & & & & & o .       < u y v A A A Z &.",
"v m A F ^ H .     & & & & & & & & & .           j K Y Z Z Z T ( ",
"k v A X.Y C 2     * & & & & & & & & @ : = o     9 &./ T F f 1.F ",
"x A A  .Y a 3     # & & & & & & & & & & & $       v s X.] R ~ D ",
"v A Z ) H s 5     : & & & & & & & & & & & & +     u A C A @.a x ",
"A A A C Z l 0     = & & & & & & & & & & & %       m A D A A b s ",
"Z A A D S A u     O & & & & & & & & & & & -     3 n A ;.A A p n ",
"A A A [ H v Z .     # & & & & & & & & & * X     r A A =.D i Z A ",
"A A Z } E s l q     X * & & & & & & & # X .   2 Z Z A Z o.j n A ",
"A A Z Z ' V l x ,     X = * & & % @ +       . i A A A Z %.Y i m ",
"A A A C  .^ k k u .                       < g i A A A A A -.p x ",
"A Z A A A ! V k A u 1                   0 N [ i A Z A A A ,.A p ",
"A A A A A Z { I l A A u 6 2     , 4 q m A D =.v p A A A A O.A p "
};
