/* XPM */
static char *_af96f4339ff4ffd86f7ac949c1ac1837QOTVt7TcGSIUxon[] = {
/* columns rows colors chars-per-pixel */
"32 32 185 2 ",
"   c #4E4B66",
".  c #514E69",
"X  c #55536B",
"o  c #58556B",
"O  c #5E5C73",
"+  c #605F78",
"@  c #646276",
"#  c #696573",
"$  c #64637B",
"%  c #68677D",
"&  c #67687F",
"*  c #6B6A7C",
"=  c #716D75",
"-  c #71707F",
";  c #78767F",
":  c #676780",
">  c #6C6C83",
",  c #6F7187",
"<  c #6F728A",
"1  c #747383",
"2  c #787782",
"3  c #7C7B84",
"4  c #73748B",
"5  c #7B7B8C",
"6  c #777890",
"7  c #7B7D92",
"8  c #807E85",
"9  c #7D8094",
"0  c #5689BC",
"q  c #6B8AA9",
"w  c #728CA3",
"e  c #7F94A8",
"r  c #6693BE",
"t  c #7390B1",
"y  c #3B86D9",
"u  c #3D8BDD",
"i  c #3D8EE0",
"p  c #3E92E2",
"a  c #408DDC",
"s  c #4995DF",
"d  c #59A2D7",
"f  c #77A2C0",
"g  c #63A6DB",
"h  c #4194E3",
"j  c #4398E6",
"k  c #4B9AE4",
"l  c #439DE9",
"z  c #44A3ED",
"x  c #4AA2EA",
"c  c #47A8EF",
"v  c #48A8EF",
"b  c #56A8E7",
"n  c #53ABEE",
"m  c #43A7F1",
"M  c #46AAF2",
"N  c #48ABF2",
"B  c #51AFF2",
"V  c #4EB0F4",
"C  c #54B3F3",
"Z  c #5BB6F4",
"A  c #56B8F4",
"S  c #5CBAF5",
"D  c #64ACE6",
"F  c #6CAEE2",
"G  c #67B4EE",
"H  c #75B8EB",
"J  c #69B7F1",
"K  c #64BCF4",
"L  c #6BBBF2",
"P  c #76BEF4",
"I  c #64C2F6",
"U  c #69C4F7",
"Y  c #6BC6F8",
"T  c #6ECBF9",
"R  c #73C7F5",
"E  c #7CC3F4",
"W  c #7BCDF6",
"Q  c #7ECCF7",
"!  c #72CDF8",
"~  c #7BD1F7",
"^  c #74D0FA",
"/  c #7BD5FA",
"(  c #84848B",
")  c #88878D",
"_  c #89898F",
"`  c #858892",
"'  c #8B8B92",
"]  c #81869B",
"[  c #868A9D",
"{  c #92939A",
"}  c #898EA3",
"|  c #8D92A6",
" . c #8F99A4",
".. c #9095A4",
"X. c #979AA3",
"o. c #9A9DA5",
"O. c #9195A9",
"+. c #949AAC",
"@. c #9A9EAC",
"#. c #959CB0",
"$. c #9CA0A6",
"%. c #9DA2AC",
"&. c #9BA3B3",
"*. c #99A9BA",
"=. c #A2A5AD",
"-. c #A3A7B0",
";. c #A5AAB3",
":. c #A5AAB8",
">. c #A4ACBC",
",. c #A9AFBB",
"<. c #A7B1BB",
"1. c #ABB2BC",
"2. c #B0B6BF",
"3. c #98AFC5",
"4. c #85B8CE",
"5. c #99B3CF",
"6. c #86B8DE",
"7. c #96BFDF",
"8. c #A5AEC1",
"9. c #A6B1C3",
"0. c #ABB3C3",
"q. c #AEB6C8",
"w. c #AEBACA",
"e. c #B0B7C2",
"r. c #B3BAC5",
"t. c #B3BCCA",
"y. c #A6BED7",
"u. c #B5BFD0",
"i. c #8ABFE5",
"p. c #BAC3CD",
"a. c #ACC4D8",
"s. c #B6C4D2",
"d. c #BAC5D3",
"f. c #BCC8D5",
"g. c #BDCBD9",
"h. c #97C5EC",
"j. c #84C2F1",
"k. c #84CBF4",
"l. c #8CCAF4",
"z. c #93CCF4",
"x. c #83D1F9",
"c. c #8BD3F8",
"v. c #8CDBFA",
"b. c #94D6F7",
"n. c #9DDDF7",
"m. c #92DCFA",
"M. c #99DDFA",
"N. c #A1C4E6",
"B. c #A4C9E9",
"V. c #A2CBEC",
"C. c #B0CFEB",
"Z. c #A8D2ED",
"A. c #BFD2E1",
"S. c #A5D5F2",
"D. c #B6DDF5",
"F. c #BADAF4",
"G. c #88E2FE",
"H. c #9AE3FC",
"J. c #A0E2FB",
"K. c #A4E9FD",
"L. c #C2CBD3",
"P. c #C1CEDC",
"I. c #C4D1DE",
"U. c #C6D3E2",
"Y. c #C9D6E4",
"T. c #CBD8E6",
"R. c #C4D7E8",
"E. c #C4DAED",
"W. c #CDDBEA",
"Q. c #D1DEEC",
"!. c #D3E1EE",
"~. c #CFE3F5",
"^. c #D6E4F2",
"/. c #D9E7F5",
"(. c #DCE9F6",
"). c #D5EBF8",
"_. c #DDECFA",
"`. c #DAF0FD",
"'. c #E1EFF6",
"]. c #E1EFFC",
"[. c #E2F0F7",
"{. c #E4F3FC",
"}. c #E9F7FD",
"|. c #E5F8FF",
" X c #EBFBFF",
/* pixels */
"N N N N M ! Y l j N v N N N N N N N N M N N N A z u z m v.A i z ",
"N M M M N Q R A v.Q M S ! N N N N M N N N M N M.N y N z H.S y z ",
"M N N m Y T C x n I v.k.N N A ! M N V v.m.c ~ Z ~ a v / Z V y z ",
"M T v.K x.! p p p j I n u p N f ' _ ' ` e b A M Z b.s J.N u z M ",
"m.U K ^ G l h h v x G D F g d w ' X.-.-.+.4.d u M S W S N y N N ",
"I h u k.K z M z N B 7.y.a.*.` 3 ' e.W.^.d. .q a M m S v.N z M N ",
"p l l ~ I M N N L l.A.P.U.d.,.' _ p.|. XU.{ w v N N N H.V T b.Z ",
"h M N A C l l C V.Q.Q.Q.Q.^.!.;.' e./._.f.{ t v N N N A c.D L l ",
"N M N m M h D z.E.Q.!.!.Q.(._.P.,.:.,.;.%.&.3.i.i.6.r 0 L n M l ",
"N N N I Z k 7.!.Q.Q.Q.Q.Q.Q.Q.U.t...8 8 X.t.g.f.g.s.] 4 g k N N ",
"N N M v.E V.E.^.!.!.!.!.^.!.Y.9.] @ * @.P.Y.W.U.W.U.[ , 5.N.v N ",
"N M K k.S.T.Y.T.T.T.T.Q.Q.U.9.7 O + | P.].^.!.!.].^.| > 0.W.N N ",
"M m b.F.E.d.s.s.u.f.d.P.R.9.7 O + +.U.Q.^.!.Q.Q.].(.O.> 0.Q.v N ",
"N L Z.L.s.f.g.g.P.P.g.w.>.] + % O.P.].(.Q.Q.^.^.T.q.6 : q.^.N N ",
"M E.s.{ -.W.!.Q.^.!.R.8.7 O $ #.T.!.Q.Q.!.Q.(._.0.4 X > s.{.N N ",
"m W.t.8 =.(.].T.u.:.#.} $ O 1 0.]._.Q.U.U.T.P.e.5 o 6 w.B.z.M N ",
"M Q.p.' -.Q.Q.t.] $ & : : - ( 2.Q./.T.g.u.g.,.' * > r._.E N M N ",
"A (.L.( 8 +.+.] $ X # 1 - ; _ r._.]./.^.d.@.X.,.,.>.1.p.S.z.N m ",
"Z ).I.$.4 % + * > 5 ' { { _ ( ,.T.Q.T.!.p.{ %.W.}.^.@.) L.{.N K ",
"M J l.!.1.3 # ; @.s.d.L.L.-.( ' -.:.=.X.%.e.P.!.].(.=.' L.}.N m.",
"x n E ~.r.' ) =.I.{._._._.g.o.( 3 ; 8 8 ;.T.].!.^.T.o.' L.[.U ! ",
"p C.y.| 3 ) ,.I.Q.^.^.^.^.^.U.@.* + 6 8.T.Q.^.!.^.I.[ 4 r.!.K.Z ",
"x !.0.O o ) d._./.Q.Y.U.T._.{.8.+ . 6 L.}./.!.Q.s.&.& & 0.W.R C ",
"z {.s.> O ' r.^.(.Q.g.s.s.W._.>.% X 6 d.{.].!.I.&., X > q.Q.i l ",
"M {.!.1.9 - &.!.!.Y.P.w.:.<.>.] + X , #.L.p.0.#.< + 9 <.h.h.z p ",
"v {. X X1.> } d.f.s.g.1.{ 2 > & : % , 8 _ ' 5 > O > t.|.E z p z ",
"N l.D.|.Q.q. .9 7 ] ] 7 * o . 9 8.q.&.' = # O o   + w. XE u N N ",
"N N L E.`. X1.& $ , , , < , , >.~._.R.;.( 3 1 4 > 4 9.F.n.s z N ",
"N N B L D.'.I.0.0.0.9.t.f.p.f.B.P E j.A.L.f.f.L.t.w.h.J n.S u x ",
"N N N m S.Q.Q.Q.Q.Q.Q.^.'.}.{.z.N N Z D.}.{.{.{.(.W.i.N B G.u z ",
"M N N N N ! b j N N N N N N N N N N M M N Z / y M N N N N J.z u ",
"N N N N N M k.H h N N N N N M N N M N M M Z H.l u N M N C G.N u "
};
