/* XPM */
static char *_0bd760543334894e5d962a23ca8c434BucX4T7dEJ6jfTXP[] = {
/* columns rows colors chars-per-pixel */
"32 32 107 2 ",
"   c #357ED6",
".  c #3782D7",
"X  c #3A82D7",
"o  c #3785DB",
"O  c #3B86DA",
"+  c #3D8BDD",
"@  c #358FE4",
"#  c #3C8EE1",
"$  c #3D92E2",
"%  c #3F9AE7",
"&  c #3E9EEC",
"*  c #3EA4F1",
"=  c #4190DE",
"-  c #4995DF",
";  c #4195E3",
":  c #4299E6",
">  c #4A9AE3",
",  c #429DE9",
"<  c #549AE0",
"1  c #4DA1E6",
"2  c #45A3ED",
"3  c #4AA2EA",
"4  c #47A8EF",
"5  c #48A8EF",
"6  c #52A5E9",
"7  c #52AAED",
"8  c #5EADE9",
"9  c #58B2EF",
"0  c #43A7F1",
"q  c #46AAF2",
"w  c #48ABF2",
"e  c #50AFF2",
"r  c #4EB1F4",
"t  c #54B4F4",
"y  c #5AB6F3",
"u  c #55B8F5",
"i  c #5CBBF5",
"p  c #63A7E5",
"a  c #60ABE6",
"s  c #65B2ED",
"d  c #6BB5EB",
"f  c #76BBEB",
"g  c #69B7F0",
"h  c #63BCF5",
"j  c #69BEF5",
"k  c #5DC0F7",
"l  c #6FC1EF",
"z  c #64C2F6",
"x  c #6AC3F6",
"c  c #6EC8F7",
"v  c #6BC6F8",
"b  c #6ECBF8",
"n  c #71C2F2",
"m  c #71C2F6",
"M  c #72C5F6",
"N  c #72C4F7",
"B  c #73C6F7",
"V  c #76C7F6",
"C  c #7FC3F0",
"Z  c #73CAF7",
"A  c #77CBF4",
"S  c #7CCCF7",
"D  c #73CAF8",
"F  c #71CDF9",
"G  c #72CCF8",
"H  c #72CEF8",
"J  c #7ECEF8",
"K  c #78D1F7",
"L  c #7ED0F6",
"P  c #74D0FA",
"I  c #79D4F9",
"U  c #7DD4FA",
"Y  c #7CD6FA",
"T  c #7FDAFC",
"R  c #85CBF2",
"E  c #89C9F1",
"W  c #89D1F7",
"Q  c #8DD2F7",
"!  c #82D0F8",
"~  c #80D2F8",
"^  c #84D2F9",
"/  c #84D3F9",
"(  c #83D5FA",
")  c #8BD4F9",
"_  c #8DD5F9",
"`  c #85D9F9",
"'  c #87DDFB",
"]  c #8BD9FA",
"[  c #8FDAFA",
"{  c #8ADEFB",
"}  c #95D5F6",
"|  c #92D9FA",
" . c #96DBFA",
".. c #93DDFA",
"X. c #90DEFB",
"o. c #99DDFA",
"O. c #8CE1FC",
"+. c #92E1FC",
"@. c #94E3FC",
"#. c #95E6FD",
"$. c #9DE1FB",
"%. c #9CE3FB",
"&. c #9CE6FD",
"*. c #A0E1F9",
"=. c #A0E3FC",
"-. c #A1E7FC",
";. c #A5EAFD",
/* pixels */
"w w w w q G c , : w q w w w w w w w w q w w w t 3 + 0 0 ' y # 2 ",
"w q q w w S B y _ S 0 i G w w w w q w w w q w o.w X 4 4 o.i O 2 ",
"q w w q v c r 3 6 x ..~ r w t G q q w O.o.w I y U O w U y w O 3 ",
"q b [ i / Z : $ : : i 7 O $ r z o.`  .t i w u q y } > *.w # 2 q ",
"..x i P s 3 ; $ w 2 q 0 2 3 w w h 9 < o o T w + q i A h w O w w ",
"h : + R s * 4 4 w w w q w w w q 0 2 , 5 E u w X w q y _ w 3 q q ",
"$ : 3 K z q w w w w w w w w w w q w w t #.& $ 2 w w w #.r G | y ",
": w w y r , , w w q w w w w q w w w r ) k q O r w w w u W a j > ",
"4 w w 0 q ; : w w w w w q w w w w q w @.w ; , w q w w * j 5 0 3 ",
"w w w z u $ : w w w w w w w w w w w r $.w O w w w w w b 5 $ q w ",
"q w q ] z # , w q w q w w w w w w w w Z G O w q w w w -.w O q w ",
"w q k B c 1 : r w w w w w q w w w w q t $.@ % w w q v Z w O q w ",
"w 0 ( h ( n $ , w w w w q w w w w w w t N z O w w w ..r : ; w w ",
"w * ~ z s m 7 , w w w w w w q w q w q q 0 %.> , q q +.t O 5 w w ",
"q m c u + f D q w w w w w q w w w w q q w &.w X 4 q z r O 2 w w ",
"0 @.h , : g i 0 w w w q w w w w w w w w w G B . 0 w 4 , ; 4 w w ",
"q z u + , q u y 2 , w w w w w w w w w w w t %.@ z w 4 X w w w w ",
"u 0 , ; q w G L # ; w w w w w w q 2 q q w w v Z G w q : q w q q ",
"y w , 2 q 0 v J 3 # q w q w w q w v B k q 0 w ;.w , w w w w w h ",
"w w w 0 u t q t d s u w w 0 w z c I ) l c i r G 5   2 w w w w ..",
"2 5 w y D i 0 $ d ] i w t h c Y R : & > ) b w q h a h q 0 q h G ",
"; 2 w _ h 0 : : q q q w u R C % % + $ w q w y w I ..A j i * ;.i ",
", w w ( h # , w q w w w , # + # $ w w w w t O.0 3 0 ; Q I z B t ",
"2 w w S h # , w w w w w w w w w w w w w w h ) 0 + w w q q | # : ",
"w w q 0 q : , w w w q w w w w q w w w q q @.w 2 $ w w u w q 5 + ",
"w w q t w w w w w w w w w q w w w w w w t o.w O w 0 w @.w 5 + 2 ",
"w w w ( i 2 5 w w w w w w w w w q w w y O.2 4 + 5 q w o.t O w w ",
"w w w / x $ , r q w w w w w q w w w q y ..2 O w w w w q [ - 5 w ",
"w w w q P 8 : w w w w q w q w w w w w w w ] = w w q w 0 | y O 4 ",
"w q w 0 / Z ; $ w q w w w w w w w q w q w $.r O 4 w w w t O.O 2 ",
"w w w w w c 8 ; q w w w w w w q w w w w w y T . 4 w w w w %.4 + ",
"w q w w w w R f : w w q w w w w w q w w w u o.2 + w w w r O.w + "
};
