/* XPM */
static char *rupee_31646656884[] = {
/* columns rows colors chars-per-pixel */
"32 32 9 1 ",
"  c #1C7C1C",
". c #414141",
"X c #24AC1C",
"o c #34D41C",
"O c #4CF41C",
"+ c #4A9C4A",
"@ c #C4FC9C",
"# c #DEFDC8",
"$ c gray99",
/* pixels */
"++++++++++++++++++++++++++++++++",
"++++++++++++++++++++++++++++++++",
"++++++++++++++++++++++++++++++++",
"++++++++++++++..++++++++++++++++",
"+++++++++++++.XX.+++++++++++++++",
"++++++++++++.XooX.++++++++++++++",
"+++++++++++.X.oo.X.+++++++++++++",
"++++++++++.XXoXX  X.++++++++++++",
"+++++++++.X.ooX   .X.+++++++++++",
"++++++++.XXooX  ##@@X.++++++++++",
"++++++++.Xooo  $##@@X.++++++++++",
"++++++++.Xoo  $$##@ X.++++++++++",
"++++++++.Xoo #$$## @X.++++++++++",
"++++++++.Xoo##$$#X@@X.++++++++++",
"++++++++.Xo@##$$X#@@X.++++++++++",
"++++++++.X@@##$O##@ X.++++++++++",
"++++++++.X@@##O$##  X.++++++++++",
"++++++++.X@@# $$#X  X.++++++++++",
"++++++++.X@@ #$$XX  X.++++++++++",
"++++++++.X@o##$OXX  X.++++++++++",
"++++++++.Xo@##OXXX  X.++++++++++",
"++++++++.X@@#XXXX   X.++++++++++",
"++++++++.X@@o XX    X.++++++++++",
"+++++++++.X.oo    .X.+++++++++++",
"++++++++++.Xooo   X.++++++++++++",
"+++++++++++.X.oo.X.+++++++++++++",
"++++++++++++.XooX.++++++++++++++",
"+++++++++++++.XX.+++++++++++++++",
"++++++++++++++..++++++++++++++++",
"++++++++++++++++++++++++++++++++",
"++++++++++++++++++++++++++++++++",
"++++++++++++++++++++++++++++++++"
};
