/* XPM */
static char *rupee_11646656884[] = {
/* columns rows colors chars-per-pixel */
"32 32 9 1 ",
"  c #1C7C1C",
". c #414141",
"X c #24AC1C",
"o c #34D41C",
"O c #4CF41C",
"+ c #4A9C4A",
"@ c #C4FC9C",
"# c #DEFDC8",
"$ c gray99",
/* pixels */
"++++++++++++++++++++++++++++++++",
"++++++++++++++++++++++++++++++++",
"++++++++++++++++++++++++++++++++",
"++++++++++++++..++++++++++++++++",
"+++++++++++++.XX.+++++++++++++++",
"++++++++++++.X$$X.++++++++++++++",
"+++++++++++.X$$$.X.+++++++++++++",
"++++++++++.X$$$#  X.++++++++++++",
"+++++++++.X$$$#   .X.+++++++++++",
"++++++++.X$$$#  X   X.++++++++++",
"++++++++.X$$#   XX @X.++++++++++",
"++++++++.X$#   XXX @X.++++++++++",
"++++++++.X##  XXXX @X.++++++++++",
"++++++++.X@@ XXXXX @X.++++++++++",
"++++++++.X@@XXXoX  @X.++++++++++",
"++++++++.X@@XXOOX  @X.++++++++++",
"++++++++.X@XXXOO   @X.++++++++++",
"++++++++.X@oXXoX  @@X.++++++++++",
"++++++++.X@oXXXo  @@X.++++++++++",
"++++++++.X@oXXOO  @#X.++++++++++",
"++++++++.X@oXXOO  #$X.++++++++++",
"++++++++.X@oXXoX #$$X.++++++++++",
"++++++++.XoooXXX#$$$X.++++++++++",
"+++++++++.X.ooo#$$$X.+++++++++++",
"++++++++++.Xoo#$$$X.++++++++++++",
"+++++++++++.X.$$$X.+++++++++++++",
"++++++++++++.X$$X.++++++++++++++",
"+++++++++++++.XX.+++++++++++++++",
"++++++++++++++..++++++++++++++++",
"++++++++++++++++++++++++++++++++",
"++++++++++++++++++++++++++++++++",
"++++++++++++++++++++++++++++++++"
};
