/* XPM */
static char *rupee_21646656884[] = {
/* columns rows colors chars-per-pixel */
"32 32 9 1 ",
"  c #1C7C1C",
". c #414141",
"X c #24AC1C",
"o c #34D41C",
"O c #4CF41C",
"+ c #4A9C4A",
"@ c #C4FC9C",
"# c #DEFDC8",
"$ c gray99",
/* pixels */
"++++++++++++++++++++++++++++++++",
"++++++++++++++++++++++++++++++++",
"++++++++++++++++++++++++++++++++",
"++++++++++++++..++++++++++++++++",
"+++++++++++++.XX.+++++++++++++++",
"++++++++++++.X##X.++++++++++++++",
"+++++++++++.X.o#$X.+++++++++++++",
"++++++++++.XXoXX$$X.++++++++++++",
"+++++++++.X.ooX$$$@X.+++++++++++",
"++++++++.XXooX$$$$$$X.++++++++++",
"++++++++.XooX#$$$$$$X.++++++++++",
"++++++++.Xoo##$$$$##X.++++++++++",
"++++++++.Xo@##$$$$##X.++++++++++",
"++++++++.X@@##$$$$@@X.++++++++++",
"++++++++.X@@##$$$ @@X.++++++++++",
"++++++++.X@@##$$  @@X.++++++++++",
"++++++++.X@@##$o  @@X.++++++++++",
"++++++++.X@@##XX  @@X.++++++++++",
"++++++++.X@@##XX #@@X.++++++++++",
"++++++++.X@@#XoO##@ X.++++++++++",
"++++++++.X@@XXO$##  X.++++++++++",
"++++++++.X@oXX$$#   X.++++++++++",
"++++++++.XooX@$$    X.++++++++++",
"+++++++++.X.@@$X  .X.+++++++++++",
"++++++++++.X@@oX  X.++++++++++++",
"+++++++++++.X.oo.X.+++++++++++++",
"++++++++++++.XooX.++++++++++++++",
"+++++++++++++.XX.+++++++++++++++",
"++++++++++++++..++++++++++++++++",
"++++++++++++++++++++++++++++++++",
"++++++++++++++++++++++++++++++++",
"++++++++++++++++++++++++++++++++"
};
