/* XPM */
static char *Idle_R_41646652291[] = {
/* columns rows colors chars-per-pixel */
"32 32 13 1 ",
"  c #292829",
". c #783E3A",
"X c #1D583B",
"o c #B85F33",
"O c #AE7340",
"+ c #309060",
"@ c #4A9C4A",
"# c #40D870",
"$ c #E1B050",
"% c #DC9A6A",
"& c #F8C9A6",
"* c #C3BED6",
"= c #F0F8F0",
/* pixels */
"@@@@@@@@@@@@@@     @@@@@@@@@@@@@",
"@@@@@@@@@@@@  +###+  @@@@@@@@@@@",
"@@@@@@@@@@@ +#######+  @@@@@@@@@",
"@@@@@@@@@@ +####+.O$$O. @@@@@@@@",
"@@@@@@@@@ ++##+.O$$$$$$O @@@@@@@",
"@@@@@@@@ X++++.O$$$$$OO.O @@@@@@",
"@@@@@@@@ ++++.O$$$$$$$$O. @@@@@@",
"@@@@@@@ X++++O$O$$$$$$$$O @@@@@@",
"@@@@@@@ ++++.O.$$$$$$$$$O @@@@@@",
"@@@@@@@ ++++...O$$$$$OOO.@@@@@@@",
"@@@@@@ X+++....OOOOOOOO. @@@@@@@",
"@@@@@@ X++X%&&%..OOO...% @@@@@@@",
"@@@@@@ XXXX%..&$O..   %& @@@@@@@",
"@@@@@ XXXXX.%..O$. *   & @@@@@@@",
"@@@@@ XXXXXX.%%.$.%=  =&% @@@@@@",
"@@@@@@ XXX   ...O &&==&&% @@@@@@",
"@@@@@@@   @@@ O.. &&&&&% @@@@@@@",
"@@@@@@@@@@@@@    .%%%%. @@@@@@@@",
"@@@@@@@@@@@@ ...X+ ...  @@@@@@@@",
"@@@@@@@@@@@ ....+#OO+ .. @@@@@@@",
"@@@@@@@@@@ .... +####+.. @@@@@@@",
"@@@@@@@@@@ ....% ##### .. @@@@@@",
"@@@@@@@@@@ ...%&%  .$$X%. @@@@@@",
"@@@@@@@@@@@  .&&% ####+% @@@@@@@",
"@@@@@@@@@@@@@    X+++++ @@@@@@@@",
"@@@@@@@@@@@@ XXX++++++X @@@@@@@@",
"@@@@@@@@@@@@ $$XX    O. @@@@@@@@",
"@@@@@@@@@@@@ $$$ @@ O... @@@@@@@",
"@@@@@@@@@@@ .oo. @@@ ... @@@@@@@",
"@@@@@@@@@@@ ooo. @@@@   @@@@@@@@",
"@@@@@@@@@@@ oo. @@@@@@@@@@@@@@@@",
"@@@@@@@@@@@@   @@@@@@@@@@@@@@@@@"
};
