/* XPM */
static char *Idle_L_11646652290[] = {
/* columns rows colors chars-per-pixel */
"32 32 13 1 ",
"  c #292829",
". c #783E3A",
"X c #1D583B",
"o c #B85F33",
"O c #AE7340",
"+ c #309060",
"@ c #4A9C4A",
"# c #40D870",
"$ c #E1B050",
"% c #DC9A6A",
"& c #F8C9A6",
"* c #C3BED6",
"= c #F0F8F0",
/* pixels */
"@@@@@@@@@@@@@     @@@@@@@@@@@@@@",
"@@@@@@@@@@@  +###+  @@@@@@@@@@@@",
"@@@@@@@@@  +#######+ @@@@@@@@@@@",
"@@@@@@@@ .O$$O.+####+ @@@@@@@@@@",
"@@@@@@@ O$$$$$$O.+###+ @@@@@@@@@",
"@@@@@@ O.O$$$$$$O.+##+X @@@@@@@@",
"@@@@@@ .O$$$$$$O$O.++++ @@@@@@@@",
"@@@@@@ O$$$$$$$$O$O++++ @@@@@@@@",
"@@@@@@ OO$$$$$$$$.O.+++X @@@@@@@",
"@@@@@@@.OOOO$$$$O...++++ @@@@@@@",
"@@@@@@@ .OOOOOOOO....+++X @@@@@@",
"@@@@@@@ %...OOO..%&&%+++X @@@@@@",
"@@@@@@@ &%   ..O$&..%++XX @@@@@@",
"@@@@@@@ &   * .$O..%.XXXX @@@@@@",
"@@@@@@ %&=  =%.$.%%.XXXXX @@@@@@",
"@@@@@@ %&&==&& O...  XXXX @@@@@@",
"@@@@@@@ %&&&&& ..O @@ XXX @@@@@@",
"@@@@@@@@ .%%%%.    @@@   @@@@@@@",
"@@@@@@@@  ... +X... @@@@@@@@@@@@",
"@@@@@@@ .. +OO#+.... @@@@@@@@@@@",
"@@@@@@ ...+####+  ... @@@@@@@@@@",
"@@@@@@ .. ####+ %.... @@@@@@@@@@",
"@@@@@@@ %X$$.  %&%.. @@@@@@@@@@@",
"@@@@@@@ %+#### %&&. @@@@@@@@@@@@",
"@@@@@@@@ +++++X %  @@@@@@@@@@@@@",
"@@@@@@@@ X+++++XXXX @@@@@@@@@@@@",
"@@@@@@@@ .O    OO$$ @@@@@@@@@@@@",
"@@@@@@@ ...O @@ $.o @@@@@@@@@@@@",
"@@@@@@@ ... @@@ .ooo @@@@@@@@@@@",
"@@@@@@@@   @@@@@ oo. @@@@@@@@@@@",
"@@@@@@@@@@@@@@@@@   @@@@@@@@@@@@",
"@@@@@@@@@@@@@@@@@@@@@@@@@@@@@@@@"
};
