/* XPM */
static char *Idle_D_41646652290[] = {
/* columns rows colors chars-per-pixel */
"32 32 13 1 ",
"  c #292829",
". c #783E3A",
"X c #1D583B",
"o c #B85F33",
"O c #AE7340",
"+ c #309060",
"@ c #4A9C4A",
"# c #40D870",
"$ c #E1B050",
"% c #DC9A6A",
"& c #F8C9A6",
"* c #C3BED6",
"= c #F0F8F0",
/* pixels */
"@@@@@@@@@@@@@      @@@@@@@@@@@@@",
"@@@@@@@@@@@  +####+  @@@@@@@@@@@",
"@@@@@@@@@@ +########+ @@@@@@@@@@",
"@@@@@@@@@ +##########+ @@@@@@@@@",
"@@@@@@@@@ +X.O$$$$O.X++ @@@@@@@@",
"@@@@@@@@ X.O$$$$$$$OOX+ @@@@@@@@",
"@@@@@@@@ .O$O$$$$$$O$OXX @@@@@@@",
"@@@@@@@@ .OO$$$$$$$$$$OX @@@@@@@",
"@@@@@    O.$$$$$$$$$$$OX   @@@@@",
"@@@@@ %%..$$$$$$$$$O$$. %% @@@@@",
"@@@@@ &&. O$$$$$OOO.$$.%&& @@@@@",
"@@@@@ %.% OOOOOOOO.%O$ &.% @@@@@",
"@@@@@@ % . OOOOO..%%. O %.@@@@@@",
"@@@@@@@  O    ..%%    $ . @@@@@@",
"@@@@@@@@ O.*   %%   *.O X  @@@@@",
"@@@@@@@@ . =  %&&%  = .XXXX @@@@",
"@@@@@@@@@  %==&&&&==%  XXXX @@@@",
"@@@@@@@@@ . %&&&&&&% .  XX @@@@@",
"@@@@@@@@ ..+ .%%%%. +..   @@@@@@",
"@@@@@@@  ..++  ..  ++..  @@@@@@@",
"@@@@@@@ ...+##OOOO##+... @@@@@@@",
"@@@@@@@ ..% ######## %.. @@@@@@@",
"@@@@@@@  %&+ ###### +&%. @@@@@@@",
"@@@@@@@@ %&+# .$$. #+&%  @@@@@@@",
"@@@@@@@@@  ++#######+   @@@@@@@@",
"@@@@@@@@@ OX++++++###X @@@@@@@@@",
"@@@@@@@@@ OOXXX+++++XX @@@@@@@@@",
"@@@@@@@@@ ..O     XX$$ @@@@@@@@@",
"@@@@@@@@ .o.. @@@@ $$o @@@@@@@@@",
"@@@@@@@@ oo. @@@@@ .ooo @@@@@@@@",
"@@@@@@@@@   @@@@@@@ .oo @@@@@@@@",
"@@@@@@@@@@@@@@@@@@@@   @@@@@@@@@"
};
