/* XPM */
static char *Run_U_31646652293[] = {
/* columns rows colors chars-per-pixel */
"32 32 11 1 ",
"  c #292829",
". c #783E3A",
"X c #1D583B",
"o c #B85F33",
"O c #AE7340",
"+ c #309060",
"@ c #4A9C4A",
"# c #40D870",
"$ c #E1B050",
"% c #DC9A6A",
"& c #F8C9A6",
/* pixels */
"@@@@@@@@@@@@@      @@@@@@@@@@@@@",
"@@@@@@@@@@@  O$$$$O  @@@@@@@@@@@",
"@@@@@@@@@@ .O+####+O. @@@@@@@@@@",
"@@@@@@@@@ .+########+. @@@@@@@@@",
"@@@@@@@@@ +##########+ @@@@@@@@@",
"@@@@@@@@ X############X @@@@@@@@",
"@@@@@@@@ +############X @@@@@@@@",
"@@@@@@@@ ##########+##+ @@@@@@@@",
"@@@@@   X#########+++#+    @@@@@",
"@@@@@ &%X########++++#+.%& @@@@@",
"@@@@@ &%X########++X+++%%& @@@@@",
"@@@@@ %.X+######+++X+++%&% @@@@@",
"@@@@@@ .X++###+++++X++X.% @@@@@@",
"@@@@@@@ X+++++++++XX++X. @@@@@@@",
"@@@@@@@@ +++++++++XX+XO @@@@@@@@",
"@@@@@@@@ X+++++++XXXXXO @@@@@@@@",
"@@@@@@@@  ++++++X XXXO @@@@@@@@@",
"@@@@@@@ . X++++X XXOO    @@@@@@@",
"@@@@@@@ .. XXX  +++XX....  @@@@@",
"@@@@@@@ ...   X###++X...... @@@@",
"@@@@@@@@ ..X++#####++ ..%&% @@@@",
"@@@@@@@@@           +X .&&& @@@@",
"@@@@@@@@@@ XX++###+X    %&% @@@@",
"@@@@@@@@@@ ###+++++++X @   @@@@@",
"@@@@@@@@@@ +++#+++++++X@@@@@@@@@",
"@@@@@@@@@@ .OO ##++XXX @@@@@@@@@",
"@@@@@@@@@@ O..O XXX.. @@@@@@@@@@",
"@@@@@@@@@@ ....      @@@@@@@@@@@",
"@@@@@@@@@@ .... @@@@@@@@@@@@@@@@",
"@@@@@@@@@@ o..o @@@@@@@@@@@@@@@@",
"@@@@@@@@@@@ oo @@@@@@@@@@@@@@@@@",
"@@@@@@@@@@@@  @@@@@@@@@@@@@@@@@@"
};
