/* XPM */
static char *Run_L_11646652292[] = {
/* columns rows colors chars-per-pixel */
"32 32 13 1 ",
"  c #292829",
". c #783E3A",
"X c #1D583B",
"o c #B85F33",
"O c #AE7340",
"+ c #309060",
"@ c #4A9C4A",
"# c #40D870",
"$ c #E1B050",
"% c #DC9A6A",
"& c #F8C9A6",
"* c #C3BED6",
"= c #F0F8F0",
/* pixels */
"@@@@@@@@@@@@@     @@@@@@@@@@@@@@",
"@@@@@@@@@@@  +###+  @@@@@@@@@@@@",
"@@@@@@@@@  +#######+ @@@@@@@@@@@",
"@@@@@@@@ .O$$O.+##### @@@@@@@@@@",
"@@@@@@@ O$$$$$$O.+##++ @@@@@@@@@",
"@@@@@@ O..O$$$$$O.++++ @@@@@@@@@",
"@@@@@@ .O$$$$$$$$O.+++X @@@@@@@@",
"@@@@@@ O$$$$$$$$O$O++++ @@@@@@@@",
"@@@@@@ $$$$$$$$$$OO.+++X @@@@@@@",
"@@@@@@ O$$$$$$$$$OO.++++ @@@@@@@",
"@@@@@@@ O$$$$$$$O....+++ @@@@@@@",
"@@@@@@@ ..OOOOO..%&&%+++ @@@@@@@",
"@@@@@@@ &%   ..O.&..%+++ @@@@@@@",
"@@@@@@@ &   * .$O..%.++X @@@@@@@",
"@@@@@@ %&=  =% O$.%.XXXX @@@@@@@",
"@@@@@@ %&&==&&% O..  XXX @@@@@@@",
"@@@@@@@ %&&&&%% .O . XX @@@@@@@@",
"@@@@@@@@ .%%%%.   .. XX @@@@@@@@",
"@@@@@@@@@ ... O+XX .   @@@@@@@@@",
"@@@@@@@@@@@ +O..XXX @@@@@@@@@@@@",
"@@@@@@@@@    ....XX @@@@@@@@@@@@",
"@@@@@@@@ %&%....XX  @@@@@@@@@@@@",
"@@@@@@   &&&...   +X  @@@@@@@@@@",
"@@@@@ .. %&%   +##+X.. @@@@@@@@@",
"@@@@@ ...O  +####+X$.oo @@@@@@@@",
"@@@@@@ ...O X+++XX$$ oo @@@@@@@@",
"@@@@@@@ .. @    OOO @   @@@@@@@@",
"@@@@@@@@  @@@@@@   @@@@@@@@@@@@@",
"@@@@@@@@@@@@@@@@@@@@@@@@@@@@@@@@",
"@@@@@@@@@@@@@@@@@@@@@@@@@@@@@@@@",
"@@@@@@@@@@@@@@@@@@@@@@@@@@@@@@@@",
"@@@@@@@@@@@@@@@@@@@@@@@@@@@@@@@@"
};
