/* XPM */
static char *_1646665470[] = {
/* columns rows colors chars-per-pixel */
"32 32 2 1 ",
"  c None",
". c black",
/* pixels */
"                                ",
"                                ",
"                                ",
"                                ",
"                                ",
"                                ",
"                                ",
"                                ",
"             ........           ",
"            .........           ",
"           ...                  ",
"           ..                   ",
"          ...                   ",
"          ..                    ",
"          .. ......             ",
"          ..........            ",
"          ....    ...           ",
"          ...      ..           ",
"          ...      ...          ",
"          ...      ...          ",
"          ...      ...          ",
"          ...      ...          ",
"           ..     ...           ",
"            ...  ...            ",
"             ......             ",
"               ..               ",
"                                ",
"                                ",
"                                ",
"                                ",
"                                ",
"                                "
};
