/* XPM */
static char *octorok_31646659332[] = {
/* columns rows colors chars-per-pixel */
"32 32 10 1 ",
"  c black",
". c #A0281F",
"X c #FF5010",
"o c #D04020",
"O c #4A9C4A",
"+ c #FFB84F",
"@ c #9E888F",
"# c #C0B5B9",
"$ c #EED8DF",
"% c white",
/* pixels */
"OOOOOOOOOOOOOOOOOOOOOOOOOOOOOOOO",
"OOOOOOOOOOOOOOOOOOOOOOOOOOOOOOOO",
"OOOOOOOOOOOOOOOOOOOOOOOOOOOOOOOO",
"OOOOOOOOOOOOOOOOOOOOOOOOOOOOOOOO",
"OOOOOOOOOOOOOOOOOOOOOOOOOOOOOOOO",
"OOOOOOOOOOOOOOOOOOOOOOOOOOOOOOOO",
"OOOOOOOOOOOOOOOOOOOOOOOOOOOOOOOO",
"OOOOOOOOOOOOOOOOOOOOOOOOOOOOOOOO",
"OOOOOOOOOOOOO.oooo.OOOOOOOOOOOOO",
"OOOOOOOOOOO.oXX++XXo.OOOOOOOOOOO",
"OOOOOOOOOO oXXXXXXXXo OOOOOOOOOO",
"OOOOOOOOO. XXXXXXXXXX .OOOOOOOOO",
"OOOOOOOOO.XX%%$##$%%XX.OOOOOOOOO",
"OOOOOOOOO.X% %%%%%% %X.OOOOOOOOO",
"OOOOOOOO. o%  %%%%  %o .OOOOOOOO",
"OOOOOOOO  .X%%+XX+%%X.  OOOOOOOO",
"OOOOOOOOO  .oXXooXXo.  OOOOOOOOO",
"OOOOOOOOO.o  ..@@..  o.OOOOOOOOO",
"OOOOOOOOO.o. $%%%%$ .o.OOOOOOOOO",
"OOOOOOOOOoX  %    %  XoOOOOOOOOO",
"OOOOOOOO.X O @$$$$@ O X.OOOOOOOO",
"OOOOOOOO  OOO      OOO  OOOOOOOO",
"OOOOOOOOOOOOOOOOOOOOOOOOOOOOOOOO",
"OOOOOOOOOOOOOOOOOOOOOOOOOOOOOOOO",
"OOOOOOOOOOOOOOOOOOOOOOOOOOOOOOOO",
"OOOOOOOOOOOOOOOOOOOOOOOOOOOOOOOO",
"OOOOOOOOOOOOOOOOOOOOOOOOOOOOOOOO",
"OOOOOOOOOOOOOOOOOOOOOOOOOOOOOOOO",
"OOOOOOOOOOOOOOOOOOOOOOOOOOOOOOOO",
"OOOOOOOOOOOOOOOOOOOOOOOOOOOOOOOO",
"OOOOOOOOOOOOOOOOOOOOOOOOOOOOOOOO",
"OOOOOOOOOOOOOOOOOOOOOOOOOOOOOOOO"
};
