/* XPM */
static char *octorok_41646659332[] = {
/* columns rows colors chars-per-pixel */
"32 32 10 1 ",
"  c black",
". c #A0281F",
"X c #FF5010",
"o c #D04020",
"O c #4A9C4A",
"+ c #FFB84F",
"@ c #9E888F",
"# c #C0B5B9",
"$ c #EED8DF",
"% c white",
/* pixels */
"OOOOOOOOOOOOOOOOOOOOOOOOOOOOOOOO",
"OOOOOOOOOOOOOOOOOOOOOOOOOOOOOOOO",
"OOOOOOOOOOOOOOOOOOOOOOOOOOOOOOOO",
"OOOOOOOOOOOOOOOOOOOOOOOOOOOOOOOO",
"OOOOOOOOOOOOOOOOOOOOOOOOOOOOOOOO",
"OOOOOOOOOOOOOOOOOOOOOOOOOOOOOOOO",
"OOOOOOOOOOOOOOOOOOOOOOOOOOOOOOOO",
"OOOOOOOOOOOOOOOOOOOOOOOOOOOOOOOO",
"OOOOOOOOOOOOOO.oo.OOOOOOOOOOOOOO",
"OOOOOOOOOOOO.oXXXXo.OOOOOOOOOOOO",
"OOOOOOOOOO. oXX++XXo .OOOOOOOOOO",
"OOOOOOOOO.o.XXXXXXXX.o.OOOOOOOOO",
"OOOOOOOOO..oX%%##%%Xo..OOOOOOOOO",
"OOOOOOOO.o X% %%%% %X o.OOOOOOOO",
"OOOOOOOO   X%  %%  %X   OOOOOOOO",
"OOOOOOOOOO o%%%%%%%%o OOOOOOOOOO",
"OOOOOOOOO...X%%oo%%X...OOOOOOOOO",
"OOOOOOOOO.o ..oXXo.. o.OOOOOOOOO",
"OOOOOOOOO.X. ..@@.. .X.OOOOOOOOO",
"OOOOOOOO.X. O $%%$ O .X.OOOOOOOO",
"OOOOOOOO   OO %  % OO   OOOOOOOO",
"OOOOOOOOOOOOO @$$@ OOOOOOOOOOOOO",
"OOOOOOOOOOOOOO    OOOOOOOOOOOOOO",
"OOOOOOOOOOOOOOOOOOOOOOOOOOOOOOOO",
"OOOOOOOOOOOOOOOOOOOOOOOOOOOOOOOO",
"OOOOOOOOOOOOOOOOOOOOOOOOOOOOOOOO",
"OOOOOOOOOOOOOOOOOOOOOOOOOOOOOOOO",
"OOOOOOOOOOOOOOOOOOOOOOOOOOOOOOOO",
"OOOOOOOOOOOOOOOOOOOOOOOOOOOOOOOO",
"OOOOOOOOOOOOOOOOOOOOOOOOOOOOOOOO",
"OOOOOOOOOOOOOOOOOOOOOOOOOOOOOOOO",
"OOOOOOOOOOOOOOOOOOOOOOOOOOOOOOOO"
};
