/* XPM */
static char *octorok_11646659331[] = {
/* columns rows colors chars-per-pixel */
"32 32 11 1 ",
"  c black",
". c #701810",
"X c #A0281F",
"o c #FF5010",
"O c #D04020",
"+ c #4A9C4A",
"@ c #FFB84F",
"# c #9E888F",
"$ c #C0B5B9",
"% c #EED8DF",
"& c white",
/* pixels */
"++++++++++++++++++++++++++++++++",
"++++++++++++++++++++++++++++++++",
"++++++++++++++++++++++++++++++++",
"++++++++++++++++++++++++++++++++",
"++++++++++++++++++++++++++++++++",
"++++++++++++++++++++++++++++++++",
"++++++++++++++++++++++++++++++++",
"++++++++++++++++++++++++++++++++",
"+++++++++++++XXOOX++++++++++++++",
"++++++++++++.OooooOX++++++++++++",
"++++++++XX.XXoo@@ooo X++++++++++",
"++++++++ OO.oooooooooO.+++++++++",
"+++++++++.OXo&&$$&&oo X+++++++++",
"++++++++++.o& &&&& &oX X++++++++",
"++++++++++ o&  &&  &oO  ++++++++",
"++++++++++ O&&&&&&&&oX X++++++++",
"++++++++++ Xo&&OO&&oX O ++++++++",
"++++++++++O XOoooOXX OX ++++++++",
"+++++++++XoO XX##XXX   +++++++++",
"++++++++XoO.  %&&%   +++++++++++",
"++++++++    + &  & +++++++++++++",
"+++++++++++++ #%%# +++++++++++++",
"++++++++++++++    ++++++++++++++",
"++++++++++++++++++++++++++++++++",
"++++++++++++++++++++++++++++++++",
"++++++++++++++++++++++++++++++++",
"++++++++++++++++++++++++++++++++",
"++++++++++++++++++++++++++++++++",
"++++++++++++++++++++++++++++++++",
"++++++++++++++++++++++++++++++++",
"++++++++++++++++++++++++++++++++",
"++++++++++++++++++++++++++++++++"
};
