/* XPM */
static char *octorok_21646659331[] = {
/* columns rows colors chars-per-pixel */
"32 32 11 1 ",
"  c black",
". c #701810",
"X c #A0281F",
"o c #FF5010",
"O c #D04020",
"+ c #4A9C4A",
"@ c #FFB84F",
"# c #9E888F",
"$ c #C0B5B9",
"% c #EED8DF",
"& c white",
/* pixels */
"++++++++++++++++++++++++++++++++",
"++++++++++++++++++++++++++++++++",
"++++++++++++++++++++++++++++++++",
"++++++++++++++++++++++++++++++++",
"++++++++++++++++++++++++++++++++",
"++++++++++++++++++++++++++++++++",
"++++++++++++++++++++++++++++++++",
"++++++++++++++++++++++++++++++++",
"++++++++++++++XOOXX+++++++++++++",
"++++++++++++XOooooO.++++++++++++",
"++++++++++X ooo@@ooXX.XX++++++++",
"+++++++++.Oooooooooo.OO ++++++++",
"+++++++++X oo&&$$&&oXO.+++++++++",
"++++++++X Xo& &&&& &o.++++++++++",
"++++++++  Oo&  &&  &o ++++++++++",
"++++++++X Xo&&&&&&&&O ++++++++++",
"++++++++ O Xo&&OO&&oX ++++++++++",
"++++++++ XO XXOoooOX O++++++++++",
"+++++++++   XXX##XX OoX+++++++++",
"+++++++++++   %&&%  .OoX++++++++",
"+++++++++++++ &  & +    ++++++++",
"+++++++++++++ #%%# +++++++++++++",
"++++++++++++++    ++++++++++++++",
"++++++++++++++++++++++++++++++++",
"++++++++++++++++++++++++++++++++",
"++++++++++++++++++++++++++++++++",
"++++++++++++++++++++++++++++++++",
"++++++++++++++++++++++++++++++++",
"++++++++++++++++++++++++++++++++",
"++++++++++++++++++++++++++++++++",
"++++++++++++++++++++++++++++++++",
"++++++++++++++++++++++++++++++++"
};
