/* XPM */
static char *ffa4f449913f4820f4e5f1fccf0c2e5e8BmskJHwK3Ixn3Dk[] = {
/* columns rows colors chars-per-pixel */
"32 32 199 2 ",
"   c #392C0D",
".  c #39341B",
"X  c #4C3101",
"o  c #5E3704",
"O  c #523F09",
"+  c #6C2D00",
"@  c #733200",
"#  c #473D23",
"$  c #523F24",
"%  c #594209",
"&  c #594B1C",
"*  c #5D531C",
"=  c #684A03",
"-  c #6E5608",
";  c #745805",
":  c #6A5316",
">  c #7A5C14",
",  c #7E6413",
"<  c #5C5028",
"1  c #4B4430",
"2  c #675C2F",
"3  c #654933",
"4  c #6B5E30",
"5  c #6F6A22",
"6  c #79692A",
"7  c #756734",
"8  c #4E4E4E",
"9  c #484D53",
"0  c #695F4B",
"q  c #7C6A48",
"w  c #67645D",
"e  c #786F5B",
"r  c #72705C",
"t  c #686A68",
"y  c #747161",
"u  c #696C71",
"i  c #6C7075",
"p  c #74777B",
"a  c #72767E",
"s  c #8C540D",
"d  c #845C13",
"f  c #B15803",
"g  c #866D00",
"h  c #977700",
"j  c #866818",
"k  c #97781A",
"l  c #AC6005",
"z  c #887628",
"x  c #967B2A",
"c  c #887731",
"v  c #A67023",
"b  c #CA7B15",
"n  c #816E51",
"m  c #7F807F",
"M  c #A48B04",
"N  c #AD9400",
"B  c #B59504",
"V  c #A4861B",
"C  c #AC8C1A",
"Z  c #B49D1D",
"A  c #94852A",
"S  c #90872D",
"D  c #A78927",
"F  c #B38F2D",
"G  c #A99329",
"H  c #BC9D25",
"J  c #B59929",
"K  c #BE9B2A",
"L  c #A78A36",
"P  c #AB9235",
"I  c #B69934",
"U  c #BCA329",
"Y  c #E48411",
"T  c #C1A000",
"R  c #CF9125",
"E  c #C5982B",
"W  c #C7A526",
"Q  c #C2A52B",
"!  c #C4A736",
"~  c #D4AE38",
"^  c #CBB139",
"/  c #D5B635",
"(  c #D7B73A",
")  c #E0B139",
"_  c #DEC122",
"`  c #DBC33B",
"'  c #E8C929",
"]  c #ECC53E",
"[  c #94844C",
"{  c #9E9040",
"}  c #8D8053",
"|  c #9B895A",
" . c #AB8F42",
".. c #89846A",
"X. c #978963",
"o. c #A28E66",
"O. c #A79C71",
"+. c #BEA36E",
"@. c #FBD947",
"#. c #7C8693",
"$. c #7F909F",
"%. c #7EA0BE",
"&. c #3884DA",
"*. c #3B86DA",
"=. c #3D8BDD",
"-. c #3D8EE0",
";. c #3E92E2",
":. c #3C9FEE",
">. c #3EA4F1",
",. c #4593DF",
"<. c #6F9ACA",
"1. c #7EAACB",
"2. c #65A4DD",
"3. c #77ADD7",
"4. c #76B3DD",
"5. c #4195E4",
"6. c #4299E6",
"7. c #4A9AE3",
"8. c #439DE9",
"9. c #549AE0",
"0. c #45A3ED",
"q. c #4AA3EB",
"w. c #4AA6EC",
"e. c #52A9EC",
"r. c #5DADEA",
"t. c #5AB0EF",
"y. c #43A7F1",
"u. c #46AAF2",
"i. c #49ABF2",
"p. c #53AFF1",
"a. c #4EB1F4",
"s. c #54B4F4",
"d. c #5BB6F4",
"f. c #55B8F5",
"g. c #5CBAF5",
"h. c #64ACE5",
"j. c #70ACE3",
"k. c #65B3EB",
"l. c #6BB6EA",
"z. c #72B4E2",
"x. c #74BBEB",
"c. c #69B7F0",
"v. c #63BCF5",
"b. c #69BEF4",
"n. c #64C2F6",
"m. c #6AC3F6",
"M. c #6DC7F8",
"N. c #6ECBF8",
"B. c #72C5F5",
"V. c #74CAF6",
"C. c #7DCCF6",
"Z. c #72CDF8",
"A. c #7ECEF8",
"S. c #7BD1F7",
"D. c #79D4FA",
"F. c #7AD5FA",
"G. c #84888A",
"H. c #98968C",
"J. c #8A8E96",
"K. c #8E929C",
"L. c #919397",
"P. c #959A99",
"I. c #A09E84",
"U. c #97A69E",
"Y. c #ABA688",
"T. c #B5A595",
"R. c #8D95A1",
"E. c #809CB1",
"W. c #A29FA0",
"Q. c #9AA5A9",
"!. c #89A7BA",
"~. c #91ADB7",
"^. c #92B3BD",
"/. c #A4A5A9",
"(. c #A9B1B2",
"). c #B9B8BA",
"_. c #C1BB96",
"`. c #87ADC7",
"'. c #88AEC6",
"]. c #8BB4C6",
"[. c #84B6D5",
"{. c #B4B7C3",
"}. c #84BFE5",
"|. c #93C1DE",
" X c #A1D0DE",
".X c #87CAF2",
"XX c #8BD2F7",
"oX c #83D3F9",
"OX c #89D6F8",
"+X c #85DAFA",
"@X c #8CDAFA",
"#X c #95D5F6",
"$X c #93DCFA",
"%X c #98DDFA",
"&X c #8BE2FD",
"*X c #95E4FC",
"=X c #9FE1FB",
"-X c #A2E6FC",
";X c #C6C7CA",
/* pixels */
"i.i.i.i.u.Z.M.8.6.u.u.i.i.i.i.i.i.i.i.u.i.i.i.s.0.=.i.y.+Xg.-.8.",
"i.u.u.u.i.A.B.f.@XC.y.v.Z.i.i.i.u.u.i.i.i.i.i.%Xp.*.w.y.%Xg.*.0.",
"u.i.i.y.M.M.s.8.e.m.$XoXi.u.f.Z.u.u.i.@X%Xi.S.d.S.*.y.D.d.i.*.0.",
"u.N.@Xv.oXV.6.5.5.6.g.e.*.6.i.m.%X+X$Xf.d.i.s.y.d.#X7.=Xi.-.0.i.",
"$Xm.g.D.k.q.;.5.u.y.u.0.0.i.k.z.x.x.9.*.-.D.i.,.y.v.V.v.i.*.i.i.",
"v.5.-..Xc.:.y.0.i.i.u.i.t.P.q 3 3 n E.k..Xf.i.*.u.y.g.@Xi.0.y.i.",
";.8.8.S.n.i.i.i.i.i.i.i.U.7 = o o = q ~.*X:.,.y.i.i.i.*Xa.N.$Xd.",
"6.u.i.f.s.8.8.i.i.i.i.k.[ g C Q E V - } b.u.*.i.i.i.i.f.XXh.b.7.",
"y.i.i.y.u.;.5.a.u.i.u.Q.* - W @.@.H % < ~.;.0.a.i.i.i.y.v.0.y.8.",
"i.i.i.n.f.;.5.a.u.u.'.0 . % K @.@.J % . r <.w.u.u.i.i.Z.u.6.i.i.",
"i.i.u.@Xm.-.6.i.a.[.| * . * J ] ] P & . 2 O.x.a.i.i.i.-Xi.*.i.i.",
"i.u.v.B.M.q.6.a.`.X.L k 5 z E ) ~ P 6 5 x  .o.].i.u.m.B.i.*.i.i.",
"u.y.oXv.oXB.;.3.X.x W Q S z R R E L c x Q W k X.l.u.$Xa.5.5.u.i.",
"i.>.S.m.k.B.p.^.P B ' / z d b Y b v 6 S ` _ M { [.u.*Xf.,.0.i.i.",
"u.B.M.f.-.x.C./.Z T ' ^ A d l f f s z P ` _ N G ].i.v.a.*.0.u.i.",
"y.*Xv.:.5.c.b._.U B C G G k s @ + s F ^ I V M I ^.i.y.8.6.w.i.i.",
"u.n.f.=.y.u.x.Y.G h j x ! K > o o d ~ ) x j g A I.l.u.*.u.i.i.i.",
"s.u.6.5.y.i.|.G.j ; - x ~ ~ D j z L ) ( x : = - y `.i.;.u.i.u.u.",
"g.i.8.y.y.y.}.n 4 % % j K / J G J U ( U , % O < w %.y.i.i.i.i.n.",
"i.i.u.u.d.s.y.`.y # X = k H Z H U E U k o   1 t m <.0.u.i.i.u.$X",
"0.u.u.d.Z.g.y.2.#.8 $ : c  . .! I P L 6 & # t R.[.j.v.u.u.y.n.Z.",
"5.0.u.@Xv.0.5.h.L.u t e X.O.+.+.| n X...t a P.j.OX%XV.b.g.>.-Xd.",
"8.i.i.oXg.;.5.k.3.%.p i G.H.T.T.H.H.W.Q.K.P.(.r.0.y.5.XXD.m.V.s.",
"y.i.u..Xv.;.8.u.y.3.t 9 u J.W.).;X;X;X).Q.L.L.3.*.u.i.u.i.@X-.8.",
"i.i.i.y.y.6.8.i.i.s.E.a K.Q./.(.{.{.).(.4. X1.2.,.u.u.f.u.u.0.,.",
"i.i.u.s.i.i.i.i.u.i.i.r.i.k.1.J.#.a u J.c.$Xa.*.u.u.a.*Xi.u.=.0.",
"i.i.i.oXg.y.i.i.i.i.i.i.i.i.k.1.1.p p !.&X>.0.=.u.i.a.#Xf.=.u.i.",
"u.i.i.oXb.6.8.i.i.u.i.i.i.i.i.i.i.w.t.t.*X0.*.i.i.i.u.u.+X,.0.i.",
"i.i.u.u.D.h.8.y.i.i.i.i.i.u.i.i.i.i.i.i.a.OX=.u.i.i.u.y.#Xg.=.0.",
"i.u.i.y.oXB.6.5.u.i.i.u.i.i.i.u.i.u.i.u.u.=Xs.*.u.i.u.i.s.&X*.0.",
"i.u.i.i.i.Z.r.5.u.i.i.i.i.i.i.i.i.i.i.i.i.d.D.*.u.i.i.i.a.=Xi.,.",
"i.i.i.i.i.y..Xx.8.i.u.i.i.u.i.i.u.i.i.u.i.f.=X0.=.i.u.u.a.@Xu.*."
};
