/* XPM */
static char *e3c3188e4a91499ca8dbdf5ab3e1ccbcw6bpSWNXw78WnhcH[] = {
/* columns rows colors chars-per-pixel */
"32 32 211 2 ",
"   c #0B110E",
".  c #0D1210",
"X  c #1E2F1E",
"o  c #332F1F",
"O  c #01192D",
"+  c #001C26",
"@  c #061F32",
"#  c #02252C",
"$  c #042938",
"%  c #192B36",
"&  c #013437",
"*  c #142F2C",
"=  c #373528",
"-  c #2B3A38",
";  c #2C0B09",
":  c #4D0802",
">  c #503C10",
",  c #5F321F",
"<  c #443031",
"1  c #623826",
"2  c #344430",
"3  c #5C4D2B",
"4  c #565237",
"5  c #514E3A",
"6  c #6C5830",
"7  c #79632D",
"8  c #756536",
"9  c #022946",
"0  c #00384C",
"q  c #183848",
"w  c #133748",
"e  c #003158",
"r  c #0A3B5E",
"t  c #003452",
"y  c #022E50",
"u  c #223A47",
"i  c #063E64",
"p  c #0E3D62",
"a  c #003C6E",
"s  c #083D68",
"d  c #004040",
"f  c #03434C",
"g  c #004954",
"h  c #085558",
"j  c #15424D",
"k  c #254349",
"l  c #384C4B",
"z  c #385348",
"x  c #294758",
"c  c #33495A",
"v  c #09446A",
"b  c #1A496D",
"n  c #15476A",
"m  c #084B75",
"M  c #1A4F77",
"N  c #205079",
"B  c #265978",
"V  c #325979",
"C  c #2B5169",
"Z  c #006060",
"A  c #106060",
"S  c #007070",
"D  c #2E6574",
"F  c #38637A",
"G  c #44544B",
"H  c #435958",
"J  c #486457",
"K  c #50655B",
"L  c #68735B",
"P  c #786143",
"I  c #596D62",
"U  c #557063",
"Y  c #486B7A",
"T  c #5C727C",
"R  c #556B6E",
"E  c #697862",
"W  c #697770",
"Q  c #B02016",
"!  c #BC3021",
"~  c #A2402C",
"^  c #AE5037",
"/  c #856A2C",
"(  c #8B6F34",
")  c #A17E34",
"_  c #A25E54",
"`  c #817055",
"'  c #BA6042",
"]  c #9C6563",
"[  c #A27C7C",
"{  c #E06042",
"}  c #698477",
"|  c #768975",
" . c #988650",
".. c #A98F50",
"X. c #9A9C70",
"o. c #AA9A66",
"O. c #B9A668",
"+. c #C39B48",
"@. c #F88058",
"#. c #CAA553",
"$. c #DBB667",
"%. c #CDB672",
"&. c #E4C87C",
"*. c #004A88",
"=. c #0E5C89",
"-. c #155682",
";. c #075995",
":. c #174786",
">. c #204D8A",
",. c #254B81",
"<. c #26548C",
"1. c #2F589C",
"2. c #335C9C",
"3. c #355788",
"4. c #0C649C",
"5. c #186593",
"6. c #266588",
"7. c #226C9B",
"8. c #3D7D96",
"9. c #025CA4",
"0. c #365CA7",
"q. c #365DB2",
"w. c #0A67A7",
"e. c #1669A5",
"r. c #0162B2",
"t. c #066EBC",
"y. c #086CB4",
"u. c #0B71B6",
"i. c #157ABA",
"p. c #3B61AE",
"a. c #2776A9",
"s. c #3675AD",
"d. c #4A7595",
"f. c #4A6D90",
"g. c #435FAC",
"h. c #4063A8",
"j. c #4163B6",
"k. c #4A67BF",
"l. c #4671B0",
"z. c #0C7CC8",
"x. c #0B78C2",
"c. c #4B66C7",
"v. c #5068D0",
"b. c #008080",
"n. c #3483AF",
"m. c #4F8C9A",
"M. c #4F8084",
"N. c #688A89",
"B. c #7A8E87",
"V. c #7E9684",
"C. c #7D8F9A",
"Z. c #6A9690",
"A. c #5897A5",
"S. c #4290B4",
"D. c #5693B7",
"F. c #428AB4",
"G. c #6296B4",
"H. c #7597AA",
"J. c #54A0B8",
"K. c #6DA2B5",
"L. c #1783C8",
"P. c #138CD4",
"I. c #1586D0",
"U. c #128AD4",
"Y. c #278BC9",
"T. c #2796DB",
"R. c #3899DA",
"E. c #3694CB",
"W. c #1898E0",
"Q. c #249EE3",
"!. c #36A7E8",
"~. c #2AA1E5",
"^. c #4698CC",
"/. c #459DD0",
"(. c #56A4D7",
"). c #63A5C8",
"_. c #7DB3DC",
"`. c #6BB1D6",
"'. c #43A8E5",
"]. c #51AFE9",
"[. c #48B0EC",
"{. c #57B6EE",
"}. c #6ABDED",
"|. c #66B7E9",
" X c #62BDF3",
".X c #68BFF2",
"XX c #7ABAE6",
"oX c #76C7F8",
"OX c #8A9E97",
"+X c #93989B",
"@X c #92A592",
"#X c #A8AA80",
"$X c #879DA7",
"%X c #94A8A0",
"&X c #99B9A5",
"*X c #A9B7B2",
"=X c #F0E098",
"-X c #97BAD1",
";X c #92B1C5",
":X c #A9C7DC",
">X c #B9CDD9",
",X c #9CCCEC",
"<X c #A7D4EF",
"1X c #A0D4F2",
"2X c #ADD2E9",
"3X c #B8E0F8",
"4X c #C2C8C8",
"5X c #C8E5F5",
"6X c #D8ECF8",
"7X c #D4E9F6",
"8X c #EDF4F8",
/* pixels */
"v.v.v.v.v.v.v.v.v.v.v.v.v.v.v.v.v.c.d D $Xv.v.v.v.v.v.v.v.v.v.v.",
"v.v.v.v.v.v.v.v.v.v.v.v.v.v.v.v.v./.p 2Xd.% v.v.v.v.v.v.v.v.v.v.",
"v.v.v.v.v.v.v.v.v.v.v.v.v.v.v.v.K.}.XX>XB.u v.v.v.v.v.v.v.v.v.v.",
"v.v.v.v.v.v.v.v.v.* . v.v.v.v.d.6X}.6X5XOXv.v.v.v.v.v.v.v.v.v.v.",
"v.v.v.v.v.v.v.v.2.U . v.v.v.b ;X5X8X6X:XA j.v.v.v.v.v.v.v.v.v.v.",
"v.v.v.v.v.v.v.v.b W . v.v g.a.7X2X(.(.B A $X3.j.v.v.v.v.v.v.v.v.",
"v.v.v.v.k 2.v.$ z I v.v.q..XoX{.].R.t.m H.}.).j.v.v.v.v.v.v.v.v.",
"v.v.v.v.V - r v K H D.oXw.[.oXoX{.y.x.y.N 7Xc.v.v.v.v.v.v.v.v.v.",
"v.v.v.v.h.J w w B.z n.oX~.p l w z.x.[.[.k.v.v.v.v.v.v.v.v.v.v.v.",
"v.v.v.v.p.q } z %Xq P.a.q I k /.oX[.T.-.0.v.v.v.v.v.v.v.v.v.v.v.",
"v.v.v.2.;.m %XOXOX$ % z I y e.4.x.*.@ :.v.v.v.v.v.v.v.v.v.v.v.v.",
"v.v.v.6.m H } >X%XI } G 9 t.7.p a 7.].v.v.v.v.v.v.k.v.v.v.v.v.v.",
"v.v.g.(.r R = *XB.G < 4Xn {.=.y r. XQ.1.v.v.v.v.b $Xv.v.v.v.v.v.",
"v.v.- 5XD.m < | G ; { :Xn.a.  y 9.z.i $ v.v.v.T f.G.N v.v.v.v.v.",
"v.N OX|.Y ` ).[.R.'.L.t.e m R.^.N O P.1.v.v.N 1X<X3Xk.v.v.v.v.v.",
"v.v.v.Y C o...&.&X`.oX Xt.- 6X6X1XB >.v.v.v.1.6X8Xf.v.v.v.v.v.v.",
"v.v.v.v.b 3 . , L %X X[.y.a.7X5X_.`.b v.v.<.e.-X+X$ -.v.v.p.v.v.",
"v.v.v.v.n > : Q ] V.~.P.e i :X|.,Xk g.v.v.{. XL.e.v L.b -X# v.v.",
"v.v.v.q.8.> ! @.^ OXW.z.e 9.F ;X* d =.& # e.T.W.W.c /.y. XT v.v.",
"v.v.v.v.g.> ~ @.' X.t.Y.b I.M.T P.d & L.!.=.v Z.A.- Z.;.G.G.v.v.",
"v.v.v.l.& > _ @.~ | r.e F W.K.m.g 5.+ M '.Q.S.- m $ w L >.v.v.v.",
"v.v.@ s.N 6 : ! [ } *.e F ;.L.v d f T.e.y  .+.e & 0 n.o.0.v.v.v.",
"v.v.v.c.v.h.( , P 8 o 3.r 4.| G # y.[.'.L.j I 0 =.h -.6.O v.v.v.",
"v.v.v.v.v.v.h.f.2 7 3 ^.4 | @XE 0 v 4.P.J.d.t g b.g K V r v.v.v.",
"v.v.v.v.v.v.v.v.v...< !.6 #.m.e.e T.g B O.L t b.b.h v v N v.v.v.",
"v.v.v.v.v.v.v.v.v./  .n.F.( F.r.e 4.W.w.5 r.f =.S & m.S.N v.v.v.",
"v.v.v.v.v.v.v.v.v.3.) ..6 7 B w / 4.X.N.e v A Z d.a.9.>.v.v.v.v.",
"v.v.v.v.v.v.v.v.v.v.X ( #.4 p L O.v X.8.9 c.S N.1XL.z.L.j.v.v.v.",
"v.v.v.v.v.v.v.v.v.v.j ..=X%.7.L.Y.e t.9.<.v.N K.-.L.z._.N v.v.v.",
"v.v.v.v.v.v.v.v.v.v.v.C $.$.E r.s 7 :.$ v.v.v.# P.v.'.3XN v.v.v.",
"v.v.v.v.v.v.v.v.v.v.v.v.B > > j N N v.v.v.v.v.$ 9 v.v.f.v.v.v.v.",
"v.v.v.v.v.v.v.v.v.v.v.v.v.v.v.v.v.v.v.v.v.v.v.v.v.,.v.v.v.v.v.v."
};
