/* XPM */
static char *_645790485219[] = {
/* columns rows colors chars-per-pixel */
"32 32 10 1 ",
"  c #5068D0",
". c #5D72B7",
"X c #697A9F",
"o c #576CC3",
"O c #838E6C",
"+ c #B5B308",
"@ c #697B9E",
"# c #9CA039",
"$ c #6376AA",
"% c #828D6C",
/* pixels */
"                                ",
"                                ",
"       .XXXXXXXXXXXXXXXXo       ",
"       O++++++++++++++++@       ",
"       O++++++++++++++++@       ",
"       O+++#############$       ",
"       O+++                     ",
"       O+++                     ",
"       O+++                     ",
"       O+++                     ",
"       O+++                     ",
"       O+++                     ",
"       O+++                     ",
"       O+++%%%%%%%%%%%%@        ",
"       O+++++++++++++++O        ",
"       O+++++++++++++++O        ",
"       O+++OOOOOOOOOOOO@        ",
"       O+++                     ",
"       O+++                     ",
"       O+++                     ",
"       O+++                     ",
"       O+++                     ",
"       O+++                     ",
"       O+++                     ",
"       O+++                     ",
"       O+++                     ",
"       O++++++++++++++++O       ",
"       O++++++++++++++++O       ",
"       O++++++++++++++++O       ",
"                                ",
"                                ",
"                                "
};
