/* XPM */
static char *_e53630d7dba4374929b7a96bab4c898bUcgzJB2XVTxlRbO[] = {
/* columns rows colors chars-per-pixel */
"32 32 192 2 ",
"   c black",
".  c #3F1512",
"X  c #2D0D17",
"o  c #383107",
"O  c #2D2D2F",
"+  c #39393B",
"@  c #4F0D1D",
"#  c #532408",
"$  c #473E1C",
"%  c #68231F",
"&  c #5A0B27",
"*  c #7F1C2E",
"=  c #6F122D",
"-  c #582829",
";  c #5A3739",
":  c #7D2A25",
">  c #702D23",
",  c #7D6D17",
"<  c #564239",
"1  c #644735",
"2  c #7C5B31",
"3  c #726E3E",
"4  c #53354A",
"5  c #7C3E49",
"6  c #424B46",
"7  c #484845",
"8  c #545554",
"9  c #59514C",
"0  c #634343",
"q  c #715452",
"w  c #706164",
"e  c #71746B",
"r  c #A73C1D",
"t  c #9D1636",
"y  c #96163E",
"u  c #9C1C39",
"i  c #8B153D",
"p  c #92312B",
"a  c #8C2A2C",
"s  c #A9212F",
"d  c #B62D2B",
"f  c #AA2738",
"g  c #A92A3B",
"h  c #A3233C",
"j  c #AD323A",
"k  c #A73831",
"l  c #BC3F37",
"z  c #B63838",
"x  c #B83235",
"c  c #B43124",
"v  c #C33927",
"b  c #C63828",
"n  c #C32C34",
"m  c #CF3137",
"M  c #D03C25",
"N  c #8C7B12",
"B  c #A45E3B",
"V  c #BE5F28",
"C  c #867132",
"Z  c #AC713B",
"A  c #DC4C16",
"S  c #D0411D",
"D  c #D94C1B",
"F  c #E95610",
"G  c #E95119",
"H  c #E95914",
"J  c #F05911",
"K  c #F6610A",
"L  c #F86E1C",
"P  c #CF4A28",
"I  c #DC4128",
"U  c #D64823",
"Y  c #C44537",
"T  c #E34920",
"R  c #CC6020",
"E  c #C46B35",
"W  c #FA772A",
"Q  c #F26624",
"!  c #830142",
"~  c #890841",
"^  c #940B44",
"/  c #BC194D",
"(  c #913F43",
")  c #9D2C48",
"_  c #A32F42",
"`  c #A42C52",
"'  c #943D6D",
"]  c #AB3D67",
"[  c #8F5346",
"{  c #895153",
"}  c #967B4B",
"|  c #917758",
" . c #997F5C",
".. c #906A4B",
"X. c #AD725F",
"o. c #B37D4B",
"O. c #9A4C72",
"+. c #884E6C",
"@. c #AB4766",
"#. c #AC5577",
"$. c #8A7A6A",
"%. c #AE6F7B",
"&. c #AC4855",
"*. c #CD4D51",
"=. c #C65956",
"-. c #D44C4D",
";. c #D66753",
":. c #E97554",
">. c #C25A77",
",. c #D65B64",
"<. c #CD626E",
"1. c #C36F7A",
"2. c #E07960",
"3. c #748078",
"4. c #A89416",
"5. c #A4883E",
"6. c #A19037",
"7. c #B39639",
"8. c #C4AD1A",
"9. c #D4942C",
"0. c #C1A535",
"q. c #D0B330",
"w. c #DBA731",
"e. c #E0C51D",
"r. c #DFC12B",
"t. c #EDD026",
"y. c #FCDE21",
"u. c #EFD232",
"i. c #9C8741",
"p. c #A49044",
"a. c #AE9452",
"s. c #BBA548",
"d. c #928979",
"f. c #9A8B72",
"g. c #A79761",
"h. c #A99063",
"j. c #C6885E",
"k. c #FC8741",
"l. c #FF9859",
"z. c #E8844D",
"x. c #C6906A",
"c. c #E38062",
"v. c #5970CC",
"b. c #5068D0",
"n. c #667AC6",
"m. c #9F7984",
"M. c #AB7587",
"N. c #D06386",
"B. c #C77D85",
"V. c #7F9093",
"C. c #7886B4",
"Z. c #88878D",
"A. c #8B8A89",
"S. c #8E929C",
"D. c #919994",
"F. c #A1839F",
"G. c #A6A387",
"H. c #8A88A0",
"J. c #9994A6",
"K. c #9F8EB0",
"L. c #A88FAA",
"P. c #A490A7",
"I. c #AD9EAB",
"U. c #A09EB1",
"Y. c #B28FA2",
"T. c #AEACBC",
"R. c #A8A7B2",
"E. c #ADADAD",
"W. c #C28896",
"Q. c #DD8492",
"!. c #DAA890",
"~. c #E8A09C",
"^. c #C494A6",
"/. c #D7AEB3",
"(. c #E4AEBF",
"). c #FEDCB8",
"_. c #BBBAC6",
"`. c #BED2C2",
"'. c #C1C1C1",
"]. c #CCCBD3",
"[. c #D2D2D6",
"{. c #DBDADF",
"}. c #D3D3DB",
"|. c #E1D3DC",
" X c #C7E1D1",
".X c #FEE4C3",
"XX c #DBDAE0",
"oX c #E3E3E6",
"OX c #E7E7EB",
"+X c #EEEEF0",
"@X c #F8F8F8",
"#X c #F3F3F4",
/* pixels */
"b.b.b.b.b.b.b.v.7.d.b.b.b.b.b.b.b.b.b.b.b.b.b.b.b.b.b.b.b.b.b.b.",
"b.b.b.b.b.b.b.v.q.  b.b.b.b.b.b.b.b.b.b.b.b.b.b.b.b.b.b.b.b.b.b.",
"b.b.b.b.b.b.b.v.q.y.e b.g.e b.b.b.b.b.b.b.b.b.b.b.b.b.b.b.P.P.b.",
"b.b.b.b.b.d.6.9 q.y.6.s.t.7 b.b.b.b.b.b.b.b.b.b.b.b.b.>.&.S t b.",
"b.b.b.b.b.d.e., } y.t.t.y.6 b.b.b.b.b.b.b.b.b.b.b.b.W.T v s %.b.",
"b.b.b.b.b.b.C u.N y.y.u.p.e b.b.b.b.b.b.b.b.b.b.b.B.T t ^.Z.e b.",
"b.b.b.b.b.b.9 p.w.9.9.a.- I.L.L.Z.v.b.b.b.b.b.b.K.n b M.@X#X8 b.",
"b.b.b.b.b.Y.@.i _ S S d ^ S S d : O.8 n.b.b.b.b.*.M y @X]._.+ b.",
"b.b.b.b.O.;.l.k.# ! U K s K K K K T / ^   b.b.b.s S Y.H.U.OX8 b.",
"b.b.b.P.-.-.M K K K t t s d A K K K K I x 1 J.] v ) F.XX@X'.w b.",
"b.b.b.<.:.Q K G m K F d A S s K K K K K ^ t c U * 4 oX@X@X8 V.b.",
"b.v.>.:.l.W G ,.(.m K s S t s K K A s n S S P d @ +.#X@X@X8 V.b.",
"b.n.*.l.L K 2.[.oX@X=.K s K A S s I H S z.1./.6 M #.#X@X@X8 V.b.",
"b.O.k.W K K N.}.[.@X~.J b A F m K G ;.#.{.#X_.0 v +.oX@X@X8 V.b.",
"n.` m I K K 2.oX@X@X(.T K i d F s /.{.#X#XXX{ k a 4 U.XX@XT.8 b.",
"^.~..X~.T K T N.@X@X!.K K s K s ].@XT.H.].Z.: . z : Z.H.U.OXXX6 ",
">.x.  x.W.Y K G Q.(.I K A u ` Y.R._.+X@X@Xq p < = p w ]._.U.U.6 ",
"@.<   < ).#.H K I m K K s g ' K._.XX#X@X@X; @ V.1 z % Z.{.{.{.6 ",
"%.r   > j.:.d K K B V K s z #.].}.T.T.].@XI.A.b.b.M.g : A.@X@X6 ",
"P.;.  l . Z ^ U K y.q.R K g &   ].XX@X#X#XE.V.b.b.b.O.l f ! X  X",
"b.M.U # E :.y u v 5 [ 7.B i y _ . ; P.[.@XE.V.b.b.b.b.6 ; : : 6 ",
"b.b.P.g s @ h x g i k Z 0.( n V ^ &   O 9 + V.b.b.b.b.b.b.V.V.n.",
"b.b.b.m.Z C X & y _ l [ q.1 - [ X.p.4.o A.V.b.b.b.b.b.b.b.b.b.b.",
"b.b.b.G.0.g.b.n.6 6 6 6 9 q.5.8.y.y.r.i.  b.b.b.b.b.b.b.b.b.b.b.",
"b.b.b.p.5.v.b.b.b.b.b.b.d.q.} 3 q.y.C 6 6 b.b.b.b.b.b.b.b.b.b.b.",
"b.b.b.} } v.b.b.b.b.b.b.d.a.$.`.v.s.$ V.b.b.b.b.b.b.b.b.b.b.b.b.",
"b.b.b.| | v.b.b.b.b.b.b.v.5.q.v.b.v.X V.b.b.b.b.b.b.b.b.b.b.b.b.",
"b.b.b.v.h.| b.b.b.b.b.b.b.| h.v.b.b.b.b.b.b.b.b.b.b.b.b.b.b.b.b.",
"b.b.b.v.h.| b.b.b.b.b.b.b.S.| f.d.b.b.b.b.b.b.b.b.b.b.b.b.b.b.b.",
"b.b.b.f. .S.b.b.b.b.b.b.b.b.D.f.g.d.b.b.b.b.b.b.b.b.b.b.b.b.b.b.",
"b.b.b.d.b.b.b.b.b.b.b.b.b.b.b.C.d.g...v.b.b.b.b.b.b.b.b.b.b.b.b.",
"b.b.b.b.b.b.b.b.b.b.b.b.b.b.b.b.b.d.d.b.b.b.b.b.b.b.b.b.b.b.b.b."
};
